<svg width="21" height="21" viewBox="0 0 21 21" fill="none" xmlns="http://www.w3.org/2000/svg">
<path d="M21 10.5C21 4.70101 16.299 0 10.5 0C4.70101 0 0 4.70101 0 10.5C0 16.299 4.70101 21 10.5 21C16.299 21 21 16.299 21 10.5Z" fill="#39BEFA"/>
<mask id="mask0_96_175" style="mask-type:luminance" maskUnits="userSpaceOnUse" x="7" y="5" width="7" height="12">
<path d="M7 5.18005H14V16.0693H7V5.18005Z" fill="white"/>
</mask>
<g mask="url(#mask0_96_175)">
<path fill-rule="evenodd" clip-rule="evenodd" d="M12.2724 10.5484C12.2465 10.6884 12.1695 10.7773 12.0666 10.8536C11.9702 10.9171 11.8663 10.9683 11.7572 11.0062C11.5507 11.0825 11.3183 11.1588 11.0866 11.2351C10.8542 11.324 10.6225 11.4003 10.416 11.464C10.171 11.5529 9.926 11.6292 9.7202 11.7055C9.5522 11.7825 9.3982 11.8714 9.2428 11.9855C9.10862 12.1058 8.99552 12.2478 8.9082 12.4055C8.8046 12.5833 8.7535 12.787 8.7535 13.0418C8.7535 13.55 8.8823 13.9322 9.1273 14.1863C9.3723 14.4278 9.8364 14.5678 10.5063 14.5678C11.1895 14.5678 11.6543 14.4278 11.9119 14.1737C12.1569 13.9063 12.2857 13.5374 12.2857 13.0537L12.2724 10.5484ZM10.507 5.18005C11.7061 5.18005 12.5958 5.40895 13.1628 5.88005C13.7165 6.34975 14 6.93495 14 7.63425V13.613C14 13.8552 13.9482 14.1219 13.8579 14.4145C13.7604 14.7226 13.5826 14.9993 13.3427 15.216C13.0844 15.4575 12.7239 15.6612 12.2724 15.8264C11.8216 15.9923 11.2287 16.0686 10.5063 16.0686C9.7713 16.0686 9.1917 15.979 8.7402 15.8264C8.2894 15.6738 7.9282 15.4575 7.6706 15.216C7.4123 14.9745 7.2317 14.7071 7.1547 14.4145C7.0644 14.1219 7.0126 13.8545 7.0126 13.613V12.6589C7.0126 12.15 7.1547 11.6796 7.4123 11.2596C7.6832 10.8396 8.057 10.5351 8.5463 10.3692C8.7913 10.2803 9.0629 10.204 9.3849 10.0892C9.6943 9.97505 10.0037 9.88615 10.3005 9.77135C10.5966 9.66985 10.8416 9.58095 11.074 9.50465C11.2931 9.41505 11.4345 9.37725 11.4863 9.35205C11.5381 9.32615 11.6151 9.28835 11.6921 9.23725C11.7831 9.18615 11.8601 9.10985 11.9504 9.03425C12.0407 8.93205 12.1044 8.82985 12.1562 8.71575C12.2213 8.58835 12.2472 8.44835 12.2472 8.28315V7.90305C12.2472 7.76305 12.2213 7.63565 12.1562 7.48305C12.1051 7.33045 12.0022 7.21635 11.8727 7.08895C11.7439 6.96155 11.5507 6.87195 11.3316 6.79635C11.1125 6.71935 10.829 6.68155 10.4804 6.68155C9.7972 6.68155 9.3464 6.82155 9.0881 7.10155C8.87598 7.34736 8.74947 7.65542 8.7276 7.97935C8.7276 8.05565 8.6632 8.10675 8.5855 8.10675H7.1421C7.10465 8.10676 7.06872 8.09198 7.04211 8.06563C7.0155 8.03928 7.00037 8.0035 7 7.96605V7.60905C7 7.26605 7.0644 6.94825 7.1932 6.65565C7.322 6.36305 7.5292 6.09565 7.8253 5.86675C8.1088 5.65045 8.4693 5.46005 8.9208 5.34525C9.44234 5.23664 9.97357 5.18129 10.5063 5.18005H10.507Z" fill="white"/>
</g>
</svg>
