<?xml version="1.0" encoding="UTF-8"?>
<!DOCTYPE svg PUBLIC "-//W3C//DTD SVG 1.1//EN" "http://www.w3.org/Graphics/SVG/1.1/DTD/svg11.dtd">
<!-- Creator: CorelDRAW 2019 (64 Bit) -->
<svg xmlns="http://www.w3.org/2000/svg" xml:space="preserve" width="135.4mm" height="117.089mm" version="1.1" style="shape-rendering:geometricPrecision; text-rendering:geometricPrecision; image-rendering:optimizeQuality; fill-rule:evenodd; clip-rule:evenodd"
viewBox="0 0 136329.74 117893.27"
 xmlns:xlink="http://www.w3.org/1999/xlink">
 <defs>
  <style type="text/css">
   <![CDATA[
    .fil0 {fill:white}
   ]]>
  </style>
 </defs>
 <g id="Camada_x0020_1">
  <metadata id="CorelCorpID_0Corel-Layer"/>
  <path class="fil0" d="M130580.83 36772.26c-2902.7,14179.63 -5027.3,28661.23 -7941.98,42835.83 -1467.41,7136.38 -2527.54,14437.09 -3995.46,21575.69 -2606.18,12674.36 592.44,10811.05 -14760.19,10811.05l-89499.37 0c-3228.83,0 -9524.07,1190.72 -8640.14,-3804.96 3780.79,-21367.47 8189.17,-43088.85 11984.86,-64503.04 2268.58,-12798.71 -0.6,-10803 14768.25,-10803l89499.27 0.1c3558.88,-1.51 9661.91,-1373.87 8584.77,3888.33zm-130580.83 71916.52l0 -51299.16c0,-15153.78 228.06,-31846.05 0,-46926.13l0 -1678.15c166.54,-3923.67 1864.92,-7626.23 6176.54,-8493.44 1959.17,-393.99 28236.93,-313.64 31935.67,-192.92 4383.81,143.18 6359.59,4278.69 8457.4,7524.63 1382.73,2139.6 1672.71,3458.29 4530.21,3460.81 6470.54,5.64 68587,-434.56 70985.36,134.62 9937.09,2358.29 3908.46,15252.35 7612.83,16360.31 2372.28,709.54 3179.49,720.62 4901.34,2823.16 3064.81,3742.63 1289.8,8634.71 476.25,12897.08 -842.65,4414.72 -1609.58,8848.77 -2452.23,13263.38 -1697.38,8892.36 -3350.05,17839 -4947.05,26750.69 -1591.76,8882.9 -3550.72,17890.75 -4909.79,26787.85 -1543.33,10103.73 -14036.96,7487.08 -24476.98,7487.08 -26459.21,0 -52918.31,0 -79377.41,0 -3811.5,0 -11478.51,609.46 -14601.41,-1114.3 -3535.52,-1951.51 -4205.39,-4609.85 -4310.71,-7785.51zm5593.66 -31055.26l0.1 -65259.9c-0.1,-6778.74 -518.44,-6659.43 6392.81,-6659.23 8416.82,0.2 17791.78,-387.85 26083.34,20.54 1716.91,958.84 4110.34,5658.4 5569.9,7482.14 3129.05,3909.97 5251.43,3418.42 9900.04,3418.32l53273.33 0c4077.11,0 9407.58,-302.16 13325.81,-7.35 3660.27,275.38 2656.22,6169.89 2656.32,10662.14 -27879.8,0 -55759.59,0 -83639.29,0 -4191.49,0 -17043.77,-570.89 -20214.2,558.91 -5899.85,2102.54 -5599.5,9121.53 -6665.37,14381.21 -1192.64,5885.35 -2088.65,11883.17 -3285.82,17757.14l-3396.97 17646.08z"/>
 </g>
</svg>
