<?xml version="1.0" encoding="UTF-8"?>
<!DOCTYPE svg PUBLIC "-//W3C//DTD SVG 1.1//EN" "http://www.w3.org/Graphics/SVG/1.1/DTD/svg11.dtd">
<!-- Creator: CorelDRAW 2019 (64 Bit) -->
<svg xmlns="http://www.w3.org/2000/svg" xml:space="preserve" width="210mm" height="297mm" version="1.1" style="shape-rendering:geometricPrecision; text-rendering:geometricPrecision; image-rendering:optimizeQuality; fill-rule:evenodd; clip-rule:evenodd"
viewBox="0 0 21000 29700"
 xmlns:xlink="http://www.w3.org/1999/xlink">
 <defs>
  <style type="text/css">
   <![CDATA[
    .str1 {stroke:#FEFEFE;stroke-width:423.33;stroke-miterlimit:22.9256}
    .str0 {stroke:#373435;stroke-width:423.33;stroke-miterlimit:22.9256}
    .str2 {stroke:#373435;stroke-width:20;stroke-miterlimit:22.9256}
    .fil1 {fill:none}
    .fil5 {fill:#FEFEFE}
    .fil6 {fill:#FEFEFE}
    .fil0 {fill:#606062}
    .fil2 {fill:#373435}
    .fil3 {fill:black}
    .fil4 {fill:#505050}
   ]]>
  </style>
   <clipPath id="id0">
    <rect x="10261.21" y="7179.04" width="8437.65" height="5249.34"/>
   </clipPath>
    <clipPath id="id1">
     <rect x="10261.21" y="7179.04" width="8437.65" height="5249.34"/>
    </clipPath>
    <clipPath id="id2">
     <rect x="18198.7" y="10288.38" width="2913.16" height="4974.16"/>
    </clipPath>
     <clipPath id="id3">
      <rect x="18198.7" y="10288.38" width="2913.16" height="4974.16"/>
     </clipPath>
    <clipPath id="id4">
     <rect x="18092.92" y="10099.87" width="3018.93" height="5439.83"/>
    </clipPath>
   <clipPath id="id5">
    <rect x="-79601.63" y="45550.92" width="36124.44" height="36124.44"/>
   </clipPath>
 </defs>
 <g id="Camada_x0020_1">
  <metadata id="CorelCorpID_0Corel-Layer"/>
  <rect class="fil0 str0" x="-6.26" y="956" width="24214.67" height="32681.34"/>
  <path class="fil1 str1" d="M60444.95 44740.03c1508.03,0 2181.84,1053.26 3495.7,2079.86l997.19 843.3c329.52,256.06 644.66,557 974.5,811.85l1475.55 1231c254.84,234.25 189.37,125.88 451.31,468.96 276.39,361.93 346.53,881.53 346.53,1493.9 0,1173.07 111.57,6800.55 -141.17,7599.61 -294.61,931.27 -978.78,1123.65 -1916,1115.34 -321.21,-2.81 -479.19,41.18 -708.14,53.26 -219.23,11.64 -442.43,-53 -753.21,-53l-1515.71 0 0 -3680.98c0,-880.64 -814.85,-1569.8 -1948.73,-1569.8 -789.85,0 -1902.25,9.53 -2490.9,269.75 -590.76,261.1 -811.08,785.11 -811.08,1624.83l0 3356.2 -3247.88 0c-971.24,0 -1508.87,-476.51 -1702.52,-1383.04 -113.81,-532.39 -29.73,-2425.05 -29.73,-3109.92 0,-1076.15 -52.81,-1989.07 -54.16,-3085.49 -0.7,-568.83 57.29,-933.9 53.45,-1516.41 -6.58,-993.29 363.79,-1248.71 958.32,-1748.23l2764.8 -2323.58c99.86,-88.93 112.4,-82.41 212.45,-166.49 89.77,-75.44 103.39,-99.03 202.17,-176.71l1701.11 -1438.54c477.34,-387.95 930.95,-695.67 1686.15,-695.67z"/>
  <g id="_1796827438928">
   <path class="fil2" d="M-20207.06 388.6c-32.45,183.06 -3.94,682.84 -2.68,901.2 6.79,1177.9 29.98,3412.92 -64.41,4467.12 -55.68,621.83 -174.52,948.12 -330,1484.45 20.33,44.32 -28.98,118.99 -68.66,212.3 -99.42,233.8 -207.83,298.57 -152.48,463.84 127.41,380.52 66.54,419.15 71.22,507.22 3.46,65.23 157.69,397.92 194.03,471.86 43.94,89.4 75.24,150.77 81.12,265.82 1.55,30.27 11.89,142.76 11.94,143.36 4.94,70.59 -9.09,45.48 -0.28,136.8 16.08,166.61 -20.51,353.88 95.34,458.53l27.12 18.5c49.61,55.74 2.5,19.2 39.64,96.39 54.89,114.11 38.64,-38.78 51.32,121.26 19.01,239.91 20.63,312.3 92.6,577.08 73.84,271.67 58.53,127.76 31.51,252.47 -1.1,5.08 -3.21,11.28 -4,16.67 -15.83,107.84 31.1,98.62 36.55,256.37 -163.32,42.23 -73.03,219.22 -26.62,414.87 27.71,116.83 -19.56,40.07 46.9,102.24 102.26,-19.96 120.28,-50.35 201.51,-95.75 196.43,-109.82 372.91,-216.88 552.09,-357.13 54.95,-43.01 111.88,-84.69 159.22,-129.06 31.62,-29.64 44.38,-48.14 78.45,-76.78 40.73,-34.25 46.08,-31.23 87.52,-67.72 470.17,-413.92 971.73,-1273.45 1134.75,-1925.56 210.06,-840.32 190.45,-1359.88 190.45,-2248.93 0,-815.72 0,-1631.43 0,-2447.15 -68.7,-60.5 -32.46,-22.35 -65.27,-100.46l-27.93 -62.34c-9.26,-18.01 -15.94,-29.13 -23.98,-42.82l-340.5 -577.59c62.44,50.94 21.62,-7.53 73.52,66.32l47.01 -48.75c25.08,0.77 178.42,260.25 249.51,333.77l28.32 24.99c-9.75,-138.83 -77.97,-158.55 -140.11,-270.8 -165.62,-299.2 -195.58,-326.88 -398.38,-600.94 -31.67,-42.79 -18.15,-27.78 -33.33,-54.15l-568.56 -695.61c-57.36,-93.36 23.36,-25.32 -80.02,-122.14 -64.45,-60.37 -23.89,-30.67 -78.07,-97.85l-433.25 -476.18c-15.74,-19.02 -23.39,-29.63 -39.72,-49.09l-285.61 -291.42c-75.44,-75.18 -355.27,-321.48 -376.92,-394.99 -21.86,-74.18 4.43,-593.49 -14.79,-697.47 -1.02,-5.55 -3.9,-13.37 -4.89,-17.72 -0.96,-4.18 -5.31,-7.77 -6.09,-16.59 -0.77,-8.65 -3.74,-11.03 -5.34,-15.96l-9.75 187.52z"/>
   <path class="fil2" d="M-33391.46 -1100.51c-82.84,136.72 -77.53,766.21 -82.93,964.86 30.38,-12.49 74.81,-45.7 40.63,-0.99 70.4,12.59 -51.96,-45.66 13.15,48.45 38.16,55.15 -62.55,12.44 83.05,61.32 50.41,-76.13 44.06,-125.28 109.21,-202.25 76.99,-90.98 83.54,-82.47 206.63,-141.48 48.68,-23.33 45.3,-19.64 54.52,-31.22 1.24,71.97 -4.25,100.16 -20.58,151.58 185.66,-0.64 158.65,-81.52 279.05,-127.29 71.64,-27.23 36.48,-42.38 111.26,-49.56 34.71,75.06 16.46,51.66 11.4,153.57 46.75,-15.7 51.16,-22.25 110.73,-22.12 -6.97,4.77 -39.15,20.73 -52.59,32.67 -48.53,43.15 -31.13,0.78 -56.8,77.03 153.93,-10.33 182.19,-62.44 318.21,-94.35 43.92,-10.3 148.7,-19.24 188.05,-35.98 86.28,-36.71 54.28,-53.49 111.29,-136.49 150.6,-0.8 170.7,-19.03 295.06,-55.11 109.77,-31.85 237.59,-28.69 333.4,-89.7 42.01,-26.75 18.76,-9.48 52.18,-39.09 104.69,-92.76 111.05,-113.33 238.61,-157.78l124.27 -38.54c3.24,-0.67 9.32,-1.9 12.62,-2.41 233.5,-36.17 172.32,24.61 344.05,-100.05 103.16,-74.89 366.01,-52.06 477.88,-97.61 94.28,-38.39 39.36,-13.72 100.17,-81.6 39.83,-44.47 42.31,-64.44 112.16,-72.04 -66.2,39.02 -25.46,-1.2 -33.75,45.68 -21.31,120.66 1.36,57.37 25.37,86.96 64.2,-95.82 219.07,-147.23 306.48,-231.05l-149.53 -28.23c31.51,-94.37 1.97,-69.14 1.23,-70.41 188.69,-1.9 134.93,-77.46 279.09,-89.61 211.21,-17.79 349.03,21.8 509.71,-96.13 3.81,-2.79 9.06,-6.68 12.83,-9.51 3.77,-2.83 8.98,-6.77 12.72,-9.63l86.71 -68.96c129.19,-113.58 70.7,-80.75 299.67,-81.2l-88.6 87.98c19,-0.35 91.79,-5.41 97.88,-4.64l70.37 20.03c68.45,11.15 129.31,-4.88 170.11,-26.31l426.97 -80.46c20.47,-6.38 4.18,-3.25 41.17,-12.02 43.16,-10.23 -21,4.8 39.68,-7.2l412.71 -18.35c79.32,-7.5 132.55,24.78 196.08,33.65 132.79,18.52 108.26,-13.49 184.14,-28.2 121.36,-23.52 332.26,55.66 456.01,32.94l99.23 -32.13c115.05,-23.05 249.27,48.73 365.57,42.89 61.71,-3.1 97.66,-47.58 155.45,-84.66 71.95,-46.16 83.41,-25.9 154.44,6.73 83.51,-51.93 39.16,-82.4 194.05,-82.28 74.9,0.06 130.93,13.61 234.25,16.11 -44.9,-43.07 -86.52,-56.14 -155.13,-58.1 27.51,-73.44 53.93,-41.98 130.85,-18.07 138.42,43.02 95.55,20.25 216.91,10.58 32.1,105.77 -31.17,24.89 106.46,65.09 61.04,17.82 142.14,60.77 199.04,56.57 76.35,-5.64 139.26,-68.52 185.33,-70.21 41.89,-1.55 11.77,-1.08 40.95,9.22l154.84 68.59c105.35,-123.72 146.9,-300.45 394.75,-430.1 199.63,-104.42 458.26,-147.19 698.84,-64.39 390.1,134.29 698.41,515.7 566.67,1071.66 116.14,-49.62 -42.06,-147.97 251.57,14.8 22.48,12.47 43.54,24.37 57.82,31.03l152.99 68.84c5.99,3.12 23.51,11.76 29.36,14.98l41.59 24.58c1.08,0.68 35.72,24.8 53.8,34.77 350.67,193.49 212.32,77.55 364.31,101.94 105.65,16.96 33.5,52.2 163.81,61.85 50.47,-51.05 40.58,-74.85 72.67,-111.41 -176.55,-1454.23 -946.13,-2283.8 -2399.48,-2498.35 -514.87,-76 -1068.12,-26.93 -1562.35,-90.8 -129.1,-18.09 -327.05,-12.47 -460.8,-4.41 -188.58,11.38 -4.69,41.69 -442.73,40.1l-1862.8 11.14c-198.7,1.3 -764.78,28.91 -916.39,-0.59l328.08 1.15c-56.61,57.16 16.97,10.37 -56.87,35.02 -34.1,11.38 -49.55,9.9 -86.07,12.14 -204.84,12.52 -220.44,48.47 -288.94,51.23 -33.69,1.37 -88.67,-15.09 -131.49,5.32 -46.26,22.06 35.77,29.85 -110.97,49.85l-772.15 79.42c-168.64,3.07 -114.2,30.73 -229.05,91.27 -91.09,48.02 -186.2,42.38 -275.64,80.49 -4.61,1.97 -10.31,4.85 -14.86,6.93 -4.56,2.09 -10.28,5.02 -14.8,7.18l-29.6 14.59c-87.41,44.14 -80.08,51.44 -201.46,70.06l-143.64 28.99c-86.72,41.29 -7.03,37.04 -214.18,119.46 -37.99,15.12 -68.93,40.6 -109.33,64.98 -152.15,91.82 3.28,-40.8 -214.51,138.44 -37.65,30.98 -336.18,213.3 -389.39,276.9 -61.35,73.34 -21.56,52.04 -21.23,88.31 1,107.72 -94.26,111.99 -141.27,175.7l-223.46 280.13c48.17,115.74 -67.61,-91.25 20.56,23.37 29.19,37.94 14.29,6.26 23.13,31.23 29.26,82.59 -129.93,122.45 -91.49,207.29 -166.17,1.96 -109.37,-39.8 -236.75,208.11 -44.18,85.99 -27.17,67.98 -103.27,115.76 -72.72,45.64 -63.82,47.26 -119.25,96.19 -26.75,-57.02 46.34,-40.28 -92.29,-41.72 25.2,-93.16 49.01,-27.36 22.17,-85.46 -72.19,35.54 -119.04,39.88 -186.21,143.64 -46.85,72.39 -22.41,102.62 -53.08,162.56l-0.29 -103.65z"/>
   <path class="fil2" d="M-33474.39 -135.65l-8.36 526.14 9.3 535.59 8.98 541.86 607.44 -59.62c107.74,-22.84 141.66,12.94 277.83,-7.63 87.38,-13.2 184.42,-68.56 273.73,-79.29 137.17,-16.47 175.5,9.69 308.15,-26.16 156.99,-42.41 128.65,20.14 306.82,-71.27 192.81,-98.93 142.03,-32.07 221.65,-53.01 72.5,-19.07 40.47,-46.78 91.91,-56.73 4.67,-0.91 114.63,9.24 165.52,8.44 -45.93,-46.21 -123.51,-47.75 -65.65,-42.63 29.78,-103.3 -23.5,8.55 24.82,-39.52 57.15,-56.84 84.11,-21.24 148.7,-99.24 62.89,-75.93 40.2,-106.47 69.87,-178.55 36.03,-87.53 63.83,-93.54 82.74,-110.57 114.93,-103.55 54.98,-23.54 54.34,-167.07 227.07,-10.51 114.58,-124.65 237.91,-93.89 332.63,-560.54 990.43,-1120.49 1588.52,-1383.29 791.74,-347.88 1624.38,-455.22 2538.85,-214.67 805.22,211.83 1476.31,710.6 1841.17,1153.62 958.23,1163.51 797.12,1854.26 924.47,2070.17l38.57 -106.35c-0.01,354.29 95.03,335.48 120.46,379.1 12.56,21.52 27.2,115 34.77,153.07 104.4,3.41 62.94,8.48 99.56,27.4l277.43 172.19 -66.53 88.7 555.01 412.11c148.94,79.05 55.93,23.52 139.53,108.37 3.37,3.42 44.83,34.36 62.79,44.52 32.54,18.41 58.3,31.32 79.79,50.57 47.78,42.82 9.73,15.6 56.89,59.46 48.62,45.23 151.61,112.29 192.74,189.85 91.36,-16.69 70.24,-31.1 110.78,-15.37 4.76,1.85 13.98,3.33 19.44,5.97l69.25 75.92c3.58,-8.4 12.25,-25.79 14.01,-55.8 10.69,-181.83 -14.01,29.24 -14.01,-188.03 80.39,41.86 38.62,60.6 38.53,64.71 -2.08,98.92 -7.93,25.83 50.17,112.6 52.19,-125.63 6.84,-302.09 0,-399.07 70.06,13.11 33.46,4.28 66.53,44.24l45.86 -79.63c61.33,-58.37 -33.69,80.34 28.27,-23.08 23.45,-39.13 29.92,-135.45 -7.6,-163.4 65.93,-59.96 63.55,55.71 66.53,-88.6l64.33 47.04c2.19,-66.72 -5.03,-154.79 12.86,-203.64l78.05 -109.51 0 -754.1c53.51,39.87 22.17,920.3 22.17,1042.39 0,365.09 13.13,755.38 -2.91,1117.31 -26.31,-369.05 -0.88,-2025.57 -0.87,-2536.58 0,-420.79 -1.42,-844.09 -12.57,-1263.9 -10.89,-410.01 -47.97,-814.94 -63.46,-1217.97 -32.09,36.56 -22.2,60.36 -72.67,111.41 -130.31,-9.65 -58.16,-44.89 -163.81,-61.85 -151.99,-24.39 -13.64,91.55 -364.31,-101.94 -18.08,-9.97 -52.72,-34.09 -53.8,-34.77l-41.59 -24.58c-5.85,-3.22 -23.37,-11.86 -29.36,-14.98l-152.99 -68.84c-14.28,-6.66 -35.34,-18.56 -57.82,-31.03 -293.63,-162.77 -135.43,-64.42 -251.57,-14.8 -129.18,410.77 -565.78,769.6 -1132.89,576.98 -224.13,-76.13 -377.45,-228.47 -476.61,-409.24 -170.01,-309.93 -82.76,-442.07 -50.76,-744.91l-154.84 -68.59c-29.18,-10.3 0.94,-10.77 -40.95,-9.22 -46.07,1.69 -108.98,64.57 -185.33,70.21 -56.9,4.2 -138,-38.75 -199.04,-56.57 -137.63,-40.2 -74.36,40.68 -106.46,-65.09 -121.36,9.67 -78.49,32.44 -216.91,-10.58 -76.92,-23.91 -103.34,-55.37 -130.85,18.07 68.61,1.96 110.23,15.03 155.13,58.1 -103.32,-2.5 -159.35,-16.05 -234.25,-16.11 -154.89,-0.12 -110.54,30.35 -194.05,82.28 -71.03,-32.63 -82.49,-52.89 -154.44,-6.73 -57.79,37.08 -93.74,81.56 -155.45,84.66 -116.3,5.84 -250.52,-65.94 -365.57,-42.89l-99.23 32.13c-123.75,22.72 -334.65,-56.46 -456.01,-32.94 -75.88,14.71 -51.35,46.72 -184.14,28.2 -63.53,-8.87 -116.76,-41.15 -196.08,-33.65l-412.71 18.35c-60.68,12 3.48,-3.03 -39.68,7.2 -36.99,8.77 -20.7,5.64 -41.17,12.02l-426.97 80.46c-40.8,21.43 -101.66,37.46 -170.11,26.31l-70.37 -20.03c-6.09,-0.77 -78.88,4.29 -97.88,4.64l88.6 -87.98c-228.97,0.45 -170.48,-32.38 -299.67,81.2l-86.71 68.96c-3.74,2.86 -8.95,6.8 -12.72,9.63 -3.77,2.83 -9.02,6.72 -12.83,9.51 -160.68,117.93 -298.5,78.34 -509.71,96.13 -144.16,12.15 -90.4,87.71 -279.09,89.61 0.74,1.27 30.28,-23.96 -1.23,70.41l149.53 28.23c-87.41,83.82 -242.28,135.23 -306.48,231.05 -24.01,-29.59 -46.68,33.7 -25.37,-86.96 8.29,-46.88 -32.45,-6.66 33.75,-45.68 -69.85,7.6 -72.33,27.57 -112.16,72.04 -60.81,67.88 -5.89,43.21 -100.17,81.6 -111.87,45.55 -374.72,22.72 -477.88,97.61 -171.73,124.66 -110.55,63.88 -344.05,100.05 -3.3,0.51 -9.38,1.74 -12.62,2.41l-124.27 38.54c-127.56,44.45 -133.92,65.02 -238.61,157.78 -33.42,29.61 -10.17,12.34 -52.18,39.09 -95.81,61.01 -223.63,57.85 -333.4,89.7 -124.36,36.08 -144.46,54.31 -295.06,55.11 -57.01,83 -25.01,99.78 -111.29,136.49 -39.35,16.74 -144.13,25.68 -188.05,35.98 -136.02,31.91 -164.28,84.02 -318.21,94.35 25.67,-76.25 8.27,-33.88 56.8,-77.03 13.44,-11.94 45.62,-27.9 52.59,-32.67 -59.57,-0.13 -63.98,6.42 -110.73,22.12 5.06,-101.91 23.31,-78.51 -11.4,-153.57 -74.78,7.18 -39.62,22.33 -111.26,49.56 -120.4,45.77 -93.39,126.65 -279.05,127.29 16.33,-51.42 21.82,-79.61 20.58,-151.58 -9.22,11.58 -5.84,7.89 -54.52,31.22 -123.09,59.01 -129.64,50.5 -206.63,141.48 -65.15,76.97 -58.8,126.12 -109.21,202.25 -145.6,-48.88 -44.89,-6.17 -83.05,-61.32 -65.11,-94.11 57.25,-35.86 -13.15,-48.45 34.18,-44.71 -10.25,-11.5 -40.63,0.99z"/>
   <path class="fil2" d="M-36877.47 -4898.92c-170.3,206.02 -379.56,1182.52 -398.53,1532.36 -6.4,117.98 -22.82,169.83 -22.82,272.45l681.78 -187.86c126.92,-53.95 74.93,-25.19 202.92,-38.69 119.74,-12.62 425.63,-128.63 605.51,-150.66 219.94,-26.93 402.78,-85.83 592.36,-163.31 70.16,-28.68 194.72,-82.53 248.78,-134.46 -95.31,0.03 -113.25,-11.94 -178.72,22.85 38.84,-84.11 165.57,-31.38 261.97,-83.37 -32.72,119.38 -18.66,23.91 2.61,65.7 239.88,-124.74 325.33,-108.18 514.13,-197.81 216.89,-102.96 159.4,-46.97 267.75,-87.36 42.33,-15.78 220.09,-76.52 240.04,-114.63 28.24,-99.47 2.42,91.61 -6.62,-27.04 -0.57,-7.41 -8.04,-3.81 0.22,-32.04 26.07,-89.17 119.91,-95.28 153.16,-100.48 200.58,-31.43 52.47,-71 264.01,-115.62 37.7,-7.95 77.63,-10.94 113.74,-19.9 50.26,-12.47 58.82,-24.42 112.1,-42.79 67.91,-23.41 152.29,-37.94 210.17,-56.26 277.66,-87.9 274.63,-69.3 551.68,-137.3l100.15 -31.85c322.05,-126.7 431.64,34.76 609.09,-101.82 1.92,-1.48 6.45,-5.76 8.53,-7.14 2.17,-1.46 7.22,-5.22 9.66,-6.56 114.56,-63.02 600.57,-113.3 734.39,-125.58l328.14 -49.47c25.75,-10.97 55.18,-40.27 88.86,-60.67l-129.5 -38.94c79.07,-30.25 34.55,-3.4 -13.84,-27.57 -66.24,-33.11 -7.38,19.17 -31.1,-46.39l-145.37 -3.68c599.93,-31.84 -38.66,-143.81 790.82,-220.32 153,-14.11 295.52,-47.98 450.97,-53.58 39.23,-1.41 152.33,1.08 200.73,-8.99l71.11 -22.16c4.87,-2.36 10,-6.12 14.57,-8.66 4.4,-2.43 9.09,-6.87 13.31,-9.35 49.92,-29.26 -52.95,-30.57 89.67,-33.77l187.86 1.61c121.89,-42.69 65.99,-17.43 143.2,-17.61 134.94,-0.31 190.66,-59.59 331.92,2.72 -229.06,-5.48 -225.37,46.32 -306.15,153.25 96.86,-0.02 160.3,0.01 250.3,-13.54 136.62,-20.57 160.6,5.9 259.68,7.48 148.34,2.37 184.56,-54.19 275.71,-70.58 393.66,-70.79 61.83,-53.86 312.45,-106.88 253.56,-53.64 352.96,-24.95 519.78,-39.4 175.65,-15.22 -6.63,-60.92 222.87,-65.38 166.45,-187.89 288.22,-140.84 505.16,-219.78 133.67,-48.63 50.38,-2.92 193.47,-24.08 77.06,-11.41 139.39,-36.94 194.74,-50.58 285.38,-70.36 -68.19,-56.14 413.74,-94.3 138.23,-10.94 94.43,-58.53 176.51,-88.58 98.86,0.99 64.66,18.49 150.48,13.16 46.22,-2.86 100.4,-15.05 187,-14.95l-15.1 -35.86c-0.87,-2.01 -4.81,-10.89 -5.69,-12.95 -25.11,-58.66 -16.4,26.4 -6.23,-15.76l309.21 19.32c167.49,-3.52 167.51,-70.4 273.61,-105.23 53.11,-17.44 92.08,-16.33 148.14,-29.68l444.38 -85.27c9.2,-23.73 3.78,-20.92 3.43,-28.31 -2.51,-52.99 -16.97,31.95 -3.43,-14.52 233.25,-19.83 69.26,26.59 211.22,28.17 140.4,1.56 254.63,-41.46 380.08,-84.56 57.77,-19.86 48.87,-22.56 109.03,-37.78 238.79,-60.46 548.23,-178.71 701.85,-186.83 171.37,-9.05 288.46,73.41 647.36,-91.2 37.71,-17.3 46.94,-31.95 101.98,-51.53 114.05,-40.57 314.01,-52.59 372.82,-31.99 175.21,61.36 -22.88,100.77 259.73,43.17 120.98,-24.65 20.89,24.3 159.99,-17.75 252.07,-76.18 168.35,-42.58 316.93,-39.21 127.99,2.89 78.43,-25.04 233.77,-77.14 131.29,-44.03 142.72,7.86 213.2,-58.8 -301.49,-63.96 -483.41,-173.14 -961.79,-240.26 -1024.86,-143.8 -2549.08,-92.37 -3542.13,-92.37 -18.34,42.74 -49.4,62.81 -104.75,75.89 -136.17,32.16 -39.21,-54.01 -194.72,26.28 -58.42,30.16 -4.55,23.54 -105.8,6.92 -295.69,-48.56 -385.13,75.01 -642.53,111.18l-1171.78 334.32 109.44 20.74c-89.08,21.02 -175.85,45.36 -264.85,67.17 -89.23,21.86 -202.25,23.35 -291.41,41.46 -195.12,39.63 -356.6,96.4 -573.07,114.83 -85.23,7.26 -212.27,24.46 -287.64,45.39 -86.67,24.06 -144.05,86.35 -228.32,103.33 -239.32,48.2 -212.99,-61.43 -476.4,56.72 -4.76,2.14 -10.36,4.89 -15.38,6.79 -5.24,1.96 -11.11,3.87 -16.64,5.56 -5.79,1.78 -11.8,2.86 -17.86,4.38 -110.32,27.63 -363.34,41.28 -422.01,108.79 -48.4,55.69 -11.84,66.8 -71.82,106 -57.93,37.86 -481.38,59.94 -603.38,84.82l-237.43 95.14c-246.03,162.83 -89.22,88.33 -538.9,147.99 -82.87,10.98 -148.51,-0.19 -203.78,40.57l-54.16 62.24 -714.76 165.81c-89.73,19.18 -100.33,18.61 -180.59,42.43 -278.62,82.67 -66.7,-73.19 -293.1,82.96 -92.24,63.61 -220.86,43.88 -354,67.31l-833.81 206.94c-338.1,97.75 -577.91,52.59 -971.13,70.28 -165.38,7.43 -50.83,45.33 -376.12,45.2 -393.04,-0.17 -413.89,-36.15 -676.86,57.61 -131.5,46.89 -309.32,132.07 -394.37,137.58 -134.73,8.72 -25.62,-15.07 -151.34,-36.62 -82.36,-14.11 -142.11,9.94 -200.49,16.71 -117.36,13.61 -293.99,3.65 -417.75,3.78z"/>
   <path class="fil2" d="M-20207.06 388.6l9.75 -187.52c1.6,4.93 4.57,7.31 5.34,15.96 0.78,8.82 5.13,12.41 6.09,16.59 0.99,4.35 3.87,12.17 4.89,17.72 19.22,103.98 -7.07,623.29 14.79,697.47 21.65,73.51 301.48,319.81 376.92,394.99l285.61 291.42c16.33,19.46 23.98,30.07 39.72,49.09l433.25 476.18c54.18,67.18 13.62,37.48 78.07,97.85 103.38,96.82 22.66,28.78 80.02,122.14l568.56 695.61c15.18,26.37 1.66,11.36 33.33,54.15 202.8,274.06 232.76,301.74 398.38,600.94 62.14,112.25 130.36,131.97 140.11,270.8l-28.32 -24.99c-71.09,-73.52 -224.43,-333 -249.51,-333.77l-47.01 48.75c-51.9,-73.85 -11.08,-15.38 -73.52,-66.32l340.5 577.59c8.04,13.69 14.72,24.81 23.98,42.82l27.93 62.34c32.81,78.11 -3.43,39.96 65.27,100.46l0 -6673.82 -348.45 -266.02c-38.1,-34.87 -6.58,-12.75 -59.49,-52.17 -21.62,-16.11 -37,-24.48 -52.98,-35.82 -107.38,-76.21 -110.17,-111.76 -269.78,-121.71l-311.89 -14.54c-76.03,-2.17 -121.73,-23.08 -172.6,-62.79l-474.02 -303.43c-72.21,-13.48 -49.51,13.71 -159.07,0.98 -228.6,-26.55 -72.39,32.04 -340.05,34.09 -1.22,-14.29 -8.04,-59.76 -8.02,-65.4 0,-0.14 15,-33.97 -15.04,-121.25 76.55,-2.75 89.38,-3.4 79.63,-42.84 -28.01,-113.28 -144.89,66.9 -191.9,-166.77l-54.12 -0.38c24.17,124.37 15.16,84.55 -1.07,110.24 -59.93,94.79 -97.71,-28.68 -237.94,43.31 -14.64,-12.39 -33.05,-35.33 -41.21,-42.56 -83.16,-73.6 -233.87,-23.91 -461.5,-96.86l110.19 -2.42c-93.21,-88.9 -53.51,-29.34 -23.29,-117.66 -5.05,-3.6 -12.72,-6.53 -16.55,-8.5l-138.54 -85.89c34.97,-14.28 67.65,-24.14 109.03,-34.12 -4.82,-3.89 -12.19,-7.37 -15.96,-9.5 -439.52,-249.2 -300.58,-40.38 -536.82,-72.48 -55.61,-7.56 -100.82,-64.12 -262.09,-112.63 -183.77,-55.26 -174.92,-165.81 -229.22,-75.17 98.99,101.67 254.18,203.45 388.19,340.71 108.29,110.9 239.41,267.57 344.97,408.82 201.73,269.94 382.01,606.79 512.36,973.9 421.65,1187.6 259.05,2332.39 343.08,2652.41z"/>
   <path class="fil2" d="M-36877.47 -4898.92c123.76,-0.13 300.39,9.83 417.75,-3.78 58.38,-6.77 118.13,-30.82 200.49,-16.71 125.72,21.55 16.61,45.34 151.34,36.62 85.05,-5.51 262.87,-90.69 394.37,-137.58 262.97,-93.76 283.82,-57.78 676.86,-57.61 325.29,0.13 210.74,-37.77 376.12,-45.2 393.22,-17.69 633.03,27.47 971.13,-70.28l833.81 -206.94c133.14,-23.43 261.76,-3.7 354,-67.31 226.4,-156.15 14.48,-0.29 293.1,-82.96 80.26,-23.82 90.86,-23.25 180.59,-42.43l714.76 -165.81 54.16 -62.24c55.27,-40.76 120.91,-29.59 203.78,-40.57 449.68,-59.66 292.87,14.84 538.9,-147.99l237.43 -95.14c122,-24.88 545.45,-46.96 603.38,-84.82 59.98,-39.2 23.42,-50.31 71.82,-106 58.67,-67.51 311.69,-81.16 422.01,-108.79 6.06,-1.52 12.07,-2.6 17.86,-4.38 5.53,-1.69 11.4,-3.6 16.64,-5.56 5.02,-1.9 10.62,-4.65 15.38,-6.79 263.41,-118.15 237.08,-8.52 476.4,-56.72 84.27,-16.98 141.65,-79.27 228.32,-103.33 75.37,-20.93 202.41,-38.13 287.64,-45.39 216.47,-18.43 377.95,-75.2 573.07,-114.83 89.16,-18.11 202.18,-19.6 291.41,-41.46 89,-21.81 175.77,-46.15 264.85,-67.17l-109.44 -20.74 1171.78 -334.32c257.4,-36.17 346.84,-159.74 642.53,-111.18 101.25,16.62 47.38,23.24 105.8,-6.92 155.51,-80.29 58.55,5.88 194.72,-26.28 55.35,-13.08 86.41,-33.15 104.75,-75.89 -2417.99,0 -4835.99,0 -7253.98,0 -546.4,0 -1229.77,27.99 -1667.89,128.38 -268.24,61.46 -468.68,110.38 -713.55,195.67 -394.51,137.44 -845.94,398.21 -1161.67,656.77 -309.9,253.79 -661.9,600.24 -868.99,949.46 -60.2,101.51 -103.21,166.71 -163.56,279.96 -50.46,94.64 -137.78,198.63 -147.87,316.26z"/>
   <path class="fil2" d="M-27073.42 -5699.97l26.05 99.47c-218.84,-0.31 -64.29,44.59 -279.01,80.09 -296.15,48.97 -534.94,184.89 -913.51,190.28 127.16,2.06 88.79,23.61 191.89,9.43l798.28 -45.63c-68.13,51.7 -174.51,46.24 -237.8,44.77 -75.56,-1.77 -8.19,-12.13 -69.7,11.25l-153.49 47.83c-36.85,7.08 -150.97,28.59 -189.38,34.2 -124.79,18.23 -257.08,0.68 -383.31,19.69 -286.02,43.04 -71.57,80.31 -344.54,81.69 -10.18,43.55 3.75,55.26 -69.91,77.99 -67,20.68 -223.66,34.46 -314.68,10.05 -69.26,-18.58 55.08,-11.94 -37.66,-11.29 -28.84,0.2 -65.28,42.74 -135.48,60.77 106.82,-84.4 74.07,21.55 89.26,67.08 -67.62,-0.24 -122.4,14.33 -154.89,-19.29l3906.35 23.2c-123.13,0.67 -266.65,-16.67 -384.7,17.46 67.84,32.9 467.74,29.57 562.12,32 461.22,11.86 1259.05,36.35 1664.61,143.25 40.99,3.86 -2.83,13.84 46.37,0.02l39.9 -16.56c-121.21,-2.05 -168.27,-44.35 -288.29,-44.35 35.88,-42.79 2.38,-10.46 77.59,-44.36l82.49 -36.24c4.17,-1.91 11.6,-5.3 17.33,-8.11 -158.74,0 -253.07,-13.44 -376.89,-22.17 9.53,50.95 44.1,14.22 -12.9,53.94 -82.02,57.16 -74.1,-53.94 -253.32,-53.94 13.14,-59.29 -13.04,-23.51 71.08,-97.21 4.38,-3.83 12.26,-8.45 17.62,-13.57 -120.11,-45.92 -55.3,10.83 -88.7,-66.52 53.39,-22.52 85.98,24.08 63.11,-58.7 -10.36,-37.47 72.24,4.58 -18.76,-30.12 -76.05,-124.1 97.5,22.26 -47.32,-34.52 -70.48,-27.64 -154.83,-1.17 -174.33,-54.19l252.08 -23.64c116.47,-32.06 -1.21,4.38 84.16,-32.72 98.36,-42.75 173.34,-1.42 328.93,-32.34 -22.19,-36.21 -13.49,-51.04 -155.23,-66.53 51.51,-61.41 47.29,-30.78 94.43,-31.35l543.84 135.9c52.76,15.38 92.05,34.38 146.63,53.93 88.45,31.68 119.93,26.1 172.52,94.14 135.44,175.25 -94.67,-73.32 40.62,57.85 82.21,-14.7 150.39,-39.09 221.65,-66.53 24.4,82.42 9.56,-5.35 -22.07,66.53 85.68,15.31 133.1,43.32 192.67,60.09l108.21 29.71c25.81,10.08 73.04,34.5 90.94,37.09l504.12 -89.37c76.09,10.75 -17.41,11.29 86.86,32.57 205.8,41.98 2.2,-54.95 190.19,-17.67 137.49,27.28 204.3,52.08 423.59,-30.24 35.93,56.31 17.88,37.77 76.11,55.61l29.17 8.71c445.97,159.49 278.67,-13.74 582.18,46.55 -74.79,31.08 -120.78,3.96 -132.95,44.36 382.98,0 129.2,-112.04 564.55,70.2 165.2,69.15 8.12,86.88 256.78,81.98l51.57 1.3c2.97,0.15 9.66,0 14.04,1.75 -4.08,15.12 11.39,22.18 -110.88,22.18l23.07 12.96c2.37,1.39 9.66,5.27 12.61,7.07 268.56,163.41 71.91,16.8 322.19,100.28 54.36,18.14 160.97,100.44 265.49,46.58 1.52,-0.79 -4.88,-33.83 108.45,-33.83 -50.02,-74.72 -70.17,-46.85 -88.59,-88.71 136.69,0 174.01,22.41 265.91,76.88 4.02,2.39 9.51,5.77 13.58,8.23l256.39 162.93c77.64,35.78 299.78,-3.16 305.56,74.74 0.24,3.28 -17.95,25.28 -20.93,32.04 247.97,5.12 230.39,173.33 399.17,177.41 -3.9,-244.4 -262.61,-832.74 -367.58,-1007.23 -210.32,-349.6 -429.63,-695.67 -723.96,-983.6 -226.02,-221.11 -495.38,-414.57 -762.02,-590.74 -80.46,-53.16 -146.09,-78.81 -226.69,-128.11 -127.17,-77.79 -353.48,-150 -465.46,-217.47 -70.48,66.66 -81.91,14.77 -213.2,58.8 -155.34,52.1 -105.78,80.03 -233.77,77.14 -148.58,-3.37 -64.86,-36.97 -316.93,39.21 -139.1,42.05 -39.01,-6.9 -159.99,17.75 -282.61,57.6 -84.52,18.19 -259.73,-43.17 -58.81,-20.6 -258.77,-8.58 -372.82,31.99 -55.04,19.58 -64.27,34.23 -101.98,51.53 -358.9,164.61 -475.99,82.15 -647.36,91.2 -153.62,8.12 -463.06,126.37 -701.85,186.83 -60.16,15.22 -51.26,17.92 -109.03,37.78 -125.45,43.1 -239.68,86.12 -380.08,84.56 -141.96,-1.58 22.03,-48 -211.22,-28.17 -13.54,46.47 0.92,-38.47 3.43,14.52 0.35,7.39 5.77,4.58 -3.43,28.31l-444.38 85.27c-56.06,13.35 -95.03,12.24 -148.14,29.68 -106.1,34.83 -106.12,101.71 -273.61,105.23l-309.21 -19.32c-10.17,42.16 -18.88,-42.9 6.23,15.76 0.88,2.06 4.82,10.94 5.69,12.95l15.1 35.86c-86.6,-0.1 -140.78,12.09 -187,14.95 -85.82,5.33 -51.62,-12.17 -150.48,-13.16 -82.08,30.05 -38.28,77.64 -176.51,88.58 -481.93,38.16 -128.36,23.94 -413.74,94.3 -55.35,13.64 -117.68,39.17 -194.74,50.58 -143.09,21.16 -59.8,-24.55 -193.47,24.08 -216.94,78.94 -338.71,31.89 -505.16,219.78z"/>
   <path class="fil2" d="M-36345.24 10598.16c161.98,281.69 747.34,790.59 1042.28,935.63 68.66,-50.91 150.05,-73.05 226.39,-105.95 94.66,-40.8 19.55,5.06 89.39,-65.52 97.5,-98.53 56.7,-32.26 206.36,-80.49l343.96 -123.02c78.98,-49.68 -51.67,-15.22 120.1,-58.79 56.35,-14.28 79.33,-21.54 119.8,-34.75l530.2 -93.99c106.31,-12.79 159.58,-43.35 242.73,-63.07 -20.1,-7.05 -40.28,-8.34 -59.32,-15.75 -49.19,-19.15 -15.64,1.45 -50.17,-26.76l20.67 -24.95c43.7,-38.45 397,-59.12 471.43,-65.61 134.14,-11.68 150.59,-66.26 554.83,-67.2 18.2,-72.1 -51.25,79.35 -6.52,-65.84l271.35 -0.52c95.19,-1.87 194.26,0.13 289.79,0.55l517.38 -35.05c382.05,-49.65 615.37,12.27 763.33,-30.5 87.76,-25.36 246,-12.66 368.54,-7.74l347.32 55.37c219.6,16.96 268.31,106.55 463.85,112.36 96.37,2.86 224.71,7.46 280.7,8.73 157.23,3.55 78.18,22.38 129.53,18.44 158.54,-12.14 240.22,39.73 430.55,87.74 -107.86,53.26 -50.39,-28.13 -85.85,62.78 1.25,80.55 63.74,4.54 134.97,113.73 -63.43,17.96 -33.45,8.26 -85.45,45.27 87.34,63.36 12.79,20.9 56.52,67.66 89.72,95.92 79.2,1.86 127.96,163.83 1.4,4.64 5.5,18.05 7.31,22.15 7.57,17.24 -6.63,43.86 42.45,33.29l176.01 -16.58c2.68,-0.83 30.89,-10.43 35.83,-11.64 50.97,-12.5 -46.81,-12.06 36.27,-6.54 93.32,6.21 20.32,-4.03 65.59,30.13 104.03,78.52 9.57,41.16 166.69,76.72 339.33,76.8 155.15,122.87 347.97,143.93 -27.4,68.25 -72.01,97.43 76.89,165.46 4.06,1.85 10.01,4.96 14.03,6.51 74.61,28.68 2.98,10.18 71.28,9.6 158.57,-1.35 143.69,41.77 306.37,148.2 -50.42,39.34 -110.31,-9.73 -110.43,-9.77 37.66,84.52 51.46,14.12 89.67,134.98 -71.94,-12.52 -45.07,-14.42 -64.38,-8.13 20.99,74.57 52.69,86.59 109.03,122.16l65.97 45.21c1.57,1.19 33.81,26.63 40.1,31.64l28.59 22.76 1992.53 0 -44.75 -105.33c89.62,86.1 149.9,3.64 149.96,3.51 27.76,-57.35 19.3,11.69 -8.77,-24.9l-121.88 -142.95c-61.07,-62.73 -25.75,-44.72 -41.11,-143.14 -0.6,-3.88 -2.15,-10.46 -2.92,-14.2 -11.02,-53.56 4.28,12.22 -7.52,-26.95l-133.53 -163.9c-81.03,-105.63 -2.86,13.31 -13.38,-70.99 -5.15,-41.14 -138.48,-202.6 -189.12,-234.34 -4.15,-2.61 -10.55,-4.82 -14.69,-7.46 -40.82,-25.91 -18.56,-1.93 -50,-39.53 -30.31,-36.26 -5.79,-13.54 -25.19,-41.52 -51.24,-73.89 -69.56,-59.59 -132.27,-110.89l-144.97 -121.35c-75.52,-66.78 -9.31,-35.77 -135.5,-108.31l-344.17 -280c-131.75,-119.99 49,52.1 -147.93,-65.25 -83.26,-49.62 -92.24,-2.14 -211.26,-59.83 -75.95,-36.82 -116.42,-94.07 -187.22,-123.48 -145.58,-60.48 -49.82,34.66 -219.69,-92.57 -90.43,-67.74 -23.8,-10.18 -148.4,-53.56l-27.33 -12.88c-16.59,32.32 -27.52,-38.92 -1.17,63.99l-496.75 -55.97c-10.48,-7.13 -23.54,-17.09 -40.38,-26.36 -143.32,-78.83 -158.54,2.2 -328.89,-72.33l-162.06 -61.18c-192.09,-106.44 -190.48,-7.63 -321.81,-95.56 -3.72,-2.49 -8.88,-6.51 -12.44,-9.19 -3.56,-2.67 -8.42,-7.07 -11.88,-9.88l-59.22 -51.97c-104.96,-75.45 -449.46,-88.69 -577.67,-87.83l88.18 -42.36c-244.76,-1 -196.99,55.59 -249.17,-17.29l-576.82 -25.18c-92.82,-2.77 -126.95,10.62 -174.41,-31.5 -279.57,-24.85 -563.42,-23.29 -848.29,-51.42 -281.55,-27.81 -528.83,-87.83 -795.4,-129.25l22.07 30.14c-202.74,-1.09 -416.36,4.64 -592.8,-27.89 -93.02,-17.15 -15.4,-24.48 -114.58,-29.29l-494.7 -0.13c-271.18,-73.97 -237.5,-8.81 -415.22,-23.85 -35.56,-3 -61.99,-43.87 -227.66,14.54 -442.32,155.96 -101.96,34.1 -269.01,153.16 -6.73,4.8 -83.75,43.42 -102.39,49.82 -77.84,26.78 -195.97,38.23 -289.55,40.17 -56.61,90.48 -37.11,27.49 -157.2,92.07l-81.3 50.01c-51.77,18.95 -112.1,10.42 -176.78,21.53l-242.43 71.14c-46.15,20.16 -174.58,2.45 -297.39,127.32 -8.64,8.77 -28.99,33.17 -31.48,35.52 -3.26,3.07 -8.06,7.75 -11.44,10.59l-62.62 36.33c-59.47,24.94 26.03,-12.76 -35.93,12.32 -2.73,1.1 -9.01,3.41 -11.68,4.59 -170.77,74.92 -40.02,10.24 -231.47,41.73 -168.62,27.72 -130.86,36.32 -251.39,153.99 -116.32,113.55 -159.49,44.84 -397.69,177.78 -4.39,2.46 -9.81,5.97 -14.1,8.49 -85.59,50.23 -18.47,41.88 -103.83,46.35z"/>
   <path class="fil2" d="M-33448.07 5490.53c14.57,301.33 53.97,599.08 132.05,887.06 49.72,183.38 187.2,602.7 298.72,711.55 58.51,-87.61 -52.59,-82.02 -67.47,-232.39 178.15,-3.21 111.63,-22.86 224.92,-43.76 233.92,-43.16 27.35,23.58 209.65,-57.96 68.32,-30.55 78.04,-6.52 131.58,-32.07 -26.44,-91.92 -74.02,-66.67 -151.4,-37.37 -3.86,-235.54 -59.04,-51.19 -132.3,-188.81 -3.26,-6.12 -16.84,-37.67 -18.68,-40.9 82.92,-39.98 91.95,-5.05 127.99,-47.49 54.04,-63.62 -31.13,-158.78 -60.82,-218.63 142.62,-12.17 73.39,-57.17 198.95,-68.11 -34.64,-42.53 -19.41,-26.79 -64.65,-30.84 -40.58,-3.64 -44.42,-7.24 -89.79,12.99 16.5,-46.3 7.7,-25.78 31.95,-60.38 139.71,-199.43 -3.05,51.9 81.19,-140.32 341.19,-0.1 219.9,-113.52 531.91,-112.25 -54.62,77.91 -111.47,49.46 -22.24,65.44 36.4,6.52 152.73,0.53 197.39,0.52 10.47,-91.9 54.07,-110.5 202.32,-110.41l-1.45 66.21c464.02,37.94 498.57,40.78 905.61,115.44 79.45,14.57 97.48,37.66 189.86,53.83 111.39,19.48 327.97,45.36 425.2,86.78 54.51,23.21 85.46,10.84 79.7,84.01l-3.68 14.04c114.11,10.38 233.9,136.96 320.89,213.03 95.51,83.54 64.1,34.08 188.42,76.19l557.5 241.55c4.52,2.26 10.09,5.32 14.62,7.55l331.68 157.94c77.6,35.89 33.75,53.1 98.67,79.44l407.25 144.69c152.87,64.42 38.93,56.09 170.35,62.65 142.38,7.13 319.42,171.81 435.38,263.83 64.03,50.81 231.28,102.31 231.12,202.04 -0.05,32.01 -39.66,36.84 101.04,85.33l101.53 32.2c87.04,45.33 -25.06,29.89 186.33,102.71l48.09 19.02c-61.14,18.91 -40,45.03 59.32,136.82l307.51 299.56c9.78,7.14 13.98,-37.04 26.84,41.3 13.03,79.4 -38.43,-4.32 5.99,40.31l799.68 11.56c155.84,34.85 1418.23,-11.84 1546.81,-64.66l-124.93 -10.48c86.68,-14 145.38,-6.28 237.29,-36.91l47.15 -19.26c-51.33,-71.76 -59.63,-7.48 -112.85,-129.61 -187.62,-430.52 -9.83,-244.22 -85.67,-402.27 -39.56,-82.42 -70.8,-11.01 -105.14,-131.53 -0.7,-2.47 -2.37,-10.45 -2.89,-12.48 -10.96,-42.6 -85.68,-10.29 -161.07,-120.07l-43.66 -67.37c-19.57,-28.58 -33.31,-48.09 -53.81,-79.07 -37.82,-57.17 -64.45,-106.43 -108.49,-157.97 -18.97,-22.21 -25.92,-27.05 -32.49,-34.18 -94.66,-102.82 -206.05,-230.43 -223.99,-366.44l-117.82 -267.77c-53.87,-61.34 -79.9,-48.03 -150.07,-49.34 -2.66,-144.98 4.55,-96.38 -100.41,-142.71 -127.45,-56.24 -27.58,-76.66 -123.36,-142.99 -53.89,-37.33 -45.63,-7.31 -116.24,-61.52 -85.16,-65.37 -76.43,-91.07 -215.93,-89.61 -158.52,1.66 -145.08,-10.92 -264.75,-73.37 34.73,-34.3 36.41,-25.64 44.62,-95.19 -201.53,67 -359.41,141.76 -580.82,201.6 -648.86,175.34 -1396.59,161.66 -2022.88,-29.12 -388.14,-118.24 -752.4,-292.45 -1040.03,-492.06 -479.99,-333.1 -602.62,-560.63 -792.34,-709.37 -74.49,29.4 -15.27,11.71 -69.4,-8.23 -472.74,-174.08 -601.26,84.07 -713.41,-170.45l-14.44 -34.38c-183.68,5.29 -175.13,-16.54 -204.31,46.06 -63.51,-19.65 -42.15,-5.57 -57.54,-65.4 -140.35,10.65 -138.26,85.68 -282.73,38.93 -86.03,-27.85 -13.54,-30.64 -141.72,-38.47l-842.83 4.05c22.49,61.16 5.37,9.46 42.73,44.66 34.97,32.95 20.07,-12.68 42.69,39.43 -32.22,7.98 -107.74,24.5 -139.02,39.18 -5.73,2.69 -80.57,59.95 -88.4,68.1 -77.48,80.8 48.63,20.08 -209.93,96.88 -153.25,45.52 -44.84,3.35 -115.71,65.28 -3.57,3.12 -8.17,7.94 -11.68,11.03l-34.78 30.38c-74.95,54.15 -45.38,-24.55 -153.66,115.67 -76.53,99.12 -45.52,279.78 -50.81,407.13z"/>
   <path class="fil2" d="M-29940.35 2239.51c17.95,-21.43 19.42,26.09 23.62,-71.26 4.4,4.01 10.73,4.5 13.22,11.99 2.47,7.43 10.32,9.08 13.87,11.02 156.2,85.27 172.68,-33.18 286.85,-42.75 256.47,-21.47 -91.68,66.26 377.6,71.37 52.23,106.17 -11.71,58.16 68.11,87.44 -62.02,159.29 85.08,-127.41 -32.33,40.65 -41.39,59.26 -53.74,58.67 12.99,177.78l65.74 -65.74c69.19,136.26 113.66,76.04 328.61,89.35 68.36,4.23 125.55,27.25 155.29,25.68 72.78,-3.84 23,-36.61 143.1,9.58l331.57 35.73c35.27,2.27 14.04,-1.04 35.64,-3.67 140.35,-17.05 153.45,57.27 242.23,3.99 -110.18,-25.62 -75.89,-17.38 -66.26,-44.68 3.44,-1.56 9.72,-6.08 11.1,-2.33 1.46,3.95 9.74,-1.83 11.84,-1.79 108.18,2.29 120.73,47.52 220.65,71.05 -80.89,79.63 9.87,33.14 -130.7,108.18 131.82,35.18 -29.23,11.62 200.68,107.17l251.98 104.14c130.4,48.85 106.88,18.54 180.76,40.78 54.88,16.51 146.97,70.64 145.01,126.42l-2.2 32.08c5.95,32.54 -69.28,-17.57 34.53,40.47 110.49,61.78 54.25,-0.99 171.32,27.37 45.71,11.07 118.7,49.22 155.29,68.53l286.72 92.55c146.72,27.76 13.24,-8.29 162.24,-10.44 1.04,-0.01 74.36,6.24 80.07,7.11 4.08,0.63 10.67,1.94 14.6,2.59 37.48,6.25 82.5,38.76 94.24,-39.05 7.72,-51.21 0.09,11.44 -1.99,-35.57 -1.5,-33.66 -18.09,6.04 -1.15,-30.75 158.79,12.48 172.19,137.62 329.83,153.56 123.07,-145.84 -69.68,-84.41 2.68,-156.97 33.32,-33.4 192.9,-1.69 302.88,81.69 75.08,56.93 46.13,55.66 120.35,10.37l-3.55 61.52c154.54,-157.76 251.2,-834.51 239.88,-1102.6 -83.7,-1982.72 -2336.49,-3068.54 -3932.81,-1854.46 -446.78,339.81 -865.33,918.36 -944.1,1761.9z"/>
   <path class="fil2" d="M-33017.3 7089.14c30.01,89.85 165.71,268.94 217.94,323.32 297.45,309.71 488.55,495.79 940.31,678.34 596.73,241.13 1199.72,257.88 1894.37,287.98 458.6,19.86 4106.62,68.08 4265.33,5.65l-799.68 -11.56c-44.42,-44.63 7.04,39.09 -5.99,-40.31 -12.86,-78.34 -17.06,-34.16 -26.84,-41.3l-307.51 -299.56c-99.32,-91.79 -120.46,-117.91 -59.32,-136.82l-48.09 -19.02c-211.39,-72.82 -99.29,-57.38 -186.33,-102.71l-101.53 -32.2c-140.7,-48.49 -101.09,-53.32 -101.04,-85.33 0.16,-99.73 -167.09,-151.23 -231.12,-202.04 -115.96,-92.02 -293,-256.7 -435.38,-263.83 -131.42,-6.56 -17.48,1.77 -170.35,-62.65l-407.25 -144.69c-64.92,-26.34 -21.07,-43.55 -98.67,-79.44l-331.68 -157.94c-4.53,-2.23 -10.1,-5.29 -14.62,-7.55l-557.5 -241.55c-124.32,-42.11 -92.91,7.35 -188.42,-76.19 -86.99,-76.07 -206.78,-202.65 -320.89,-213.03l3.68 -14.04c5.76,-73.17 -25.19,-60.8 -79.7,-84.01 -97.23,-41.42 -313.81,-67.3 -425.2,-86.78 -92.38,-16.17 -110.41,-39.26 -189.86,-53.83 -407.04,-74.66 -441.59,-77.5 -905.61,-115.44l1.45 -66.21c-148.25,-0.09 -191.85,18.51 -202.32,110.41 -44.66,0.01 -160.99,6 -197.39,-0.52 -89.23,-15.98 -32.38,12.47 22.24,-65.44 -312.01,-1.27 -190.72,112.15 -531.91,112.25 -84.24,192.22 58.52,-59.11 -81.19,140.32 -24.25,34.6 -15.45,14.08 -31.95,60.38 45.37,-20.23 49.21,-16.63 89.79,-12.99 45.24,4.05 30.01,-11.69 64.65,30.84 -125.56,10.94 -56.33,55.94 -198.95,68.11 29.69,59.85 114.86,155.01 60.82,218.63 -36.04,42.44 -45.07,7.51 -127.99,47.49 1.84,3.23 15.42,34.78 18.68,40.9 73.26,137.62 128.44,-46.73 132.3,188.81 77.38,-29.3 124.96,-54.55 151.4,37.37 -53.54,25.55 -63.26,1.52 -131.58,32.07 -182.3,81.54 24.27,14.8 -209.65,57.96 -113.29,20.9 -46.77,40.55 -224.92,43.76 14.88,150.37 125.98,144.78 67.47,232.39z"/>
   <path class="fil2" d="M-37298.82 -3094.11c0,265.19 -22.17,467.76 -22.17,747.02 0,258.72 0,517.45 0,776.17 0,522.82 0,1045.63 0,1568.45 145.19,-118.14 -84.9,-44.35 434.61,-337.75 32.86,-18.55 121.4,-80.05 150.71,-112.6 117.86,-130.93 -40.19,-55.07 196.69,-204.5l27 -17.59c99.4,-67 274.37,-184.85 389.44,-224.06l23.51 -7.3c220.36,-90.2 -49.73,-118.47 359.36,-285.21 76.37,-31.13 20.33,-8.49 84.02,-47.01 40.3,-24.37 47.59,-24.45 87,-46.8 99.34,-56.34 98.3,-133.2 208.78,-190.34l274.13 -127.7c68.11,-21.83 126.05,-43.45 169.91,-90.51 55.4,56.22 23.62,-26.16 38.23,54.09l-13.57 33.46c62.77,-28.53 25.4,-17.77 113.84,-24.24 -15.8,54.56 -21.09,79.47 -20.19,152.02 154.91,-3.73 -15.54,4.21 138.25,-61.35 248.66,-1026.71 560.62,-1737.21 1395.2,-2405.18 152.29,-121.88 281.49,-211.14 460.59,-315.09 1152.77,-669.11 2667.61,-619.46 3998.13,-624.02 393.19,-1.35 2926.94,37.68 3075.7,-16.78 118.05,-34.13 261.57,-16.79 384.7,-17.46l-3906.35 -23.2c32.49,33.62 87.27,19.05 154.89,19.29 -15.19,-45.53 17.56,-151.48 -89.26,-67.08 70.2,-18.03 106.64,-60.57 135.48,-60.77 92.74,-0.65 -31.6,-7.29 37.66,11.29 91.02,24.41 247.68,10.63 314.68,-10.05 73.66,-22.73 59.73,-34.44 69.91,-77.99 272.97,-1.38 58.52,-38.65 344.54,-81.69 126.23,-19.01 258.52,-1.46 383.31,-19.69 38.41,-5.61 152.53,-27.12 189.38,-34.2l153.49 -47.83c61.51,-23.38 -5.86,-13.02 69.7,-11.25 63.29,1.47 169.67,6.93 237.8,-44.77l-798.28 45.63c-103.1,14.18 -64.73,-7.37 -191.89,-9.43 378.57,-5.39 617.36,-141.31 913.51,-190.28 214.72,-35.5 60.17,-80.4 279.01,-80.09l-26.05 -99.47c-229.5,4.46 -47.22,50.16 -222.87,65.38 -166.82,14.45 -266.22,-14.24 -519.78,39.4 -250.62,53.02 81.21,36.09 -312.45,106.88 -91.15,16.39 -127.37,72.95 -275.71,70.58 -99.08,-1.58 -123.06,-28.05 -259.68,-7.48 -90,13.55 -153.44,13.52 -250.3,13.54 80.78,-106.93 77.09,-158.73 306.15,-153.25 -141.26,-62.31 -196.98,-3.03 -331.92,-2.72 -77.21,0.18 -21.31,-25.08 -143.2,17.61l-187.86 -1.61c-142.62,3.2 -39.75,4.51 -89.67,33.77 -4.22,2.48 -8.91,6.92 -13.31,9.35 -4.57,2.54 -9.7,6.3 -14.57,8.66l-71.11 22.16c-48.4,10.07 -161.5,7.58 -200.73,8.99 -155.45,5.6 -297.97,39.47 -450.97,53.58 -829.48,76.51 -190.89,188.48 -790.82,220.32l145.37 3.68c23.72,65.56 -35.14,13.28 31.1,46.39 48.39,24.17 92.91,-2.68 13.84,27.57l129.5 38.94c-33.68,20.4 -63.11,49.7 -88.86,60.67l-328.14 49.47c-133.82,12.28 -619.83,62.56 -734.39,125.58 -2.44,1.34 -7.49,5.1 -9.66,6.56 -2.08,1.38 -6.61,5.66 -8.53,7.14 -177.45,136.58 -287.04,-24.88 -609.09,101.82l-100.15 31.85c-277.05,68 -274.02,49.4 -551.68,137.3 -57.88,18.32 -142.26,32.85 -210.17,56.26 -53.28,18.37 -61.84,30.32 -112.1,42.79 -36.11,8.96 -76.04,11.95 -113.74,19.9 -211.54,44.62 -63.43,84.19 -264.01,115.62 -33.25,5.2 -127.09,11.31 -153.16,100.48 -8.26,28.23 -0.79,24.63 -0.22,32.04 9.04,118.65 34.86,-72.43 6.62,27.04 -19.95,38.11 -197.71,98.85 -240.04,114.63 -108.35,40.39 -50.86,-15.6 -267.75,87.36 -188.8,89.63 -274.25,73.07 -514.13,197.81 -21.27,-41.79 -35.33,53.68 -2.61,-65.7 -96.4,51.99 -223.13,-0.74 -261.97,83.37 65.47,-34.79 83.41,-22.82 178.72,-22.85 -54.06,51.93 -178.62,105.78 -248.78,134.46 -189.58,77.48 -372.42,136.38 -592.36,163.31 -179.88,22.03 -485.77,138.04 -605.51,150.66 -127.99,13.5 -76,-15.26 -202.92,38.69l-681.78 187.86z"/>
   <path class="fil2" d="M-35302.96 11533.79c120.61,110.35 587.29,327.22 734.35,375.85 1122.69,371.3 1735.83,335.19 3057.77,335.19 1511.15,0 3022.3,0 4533.46,0l-28.59 -22.76c-6.29,-5.01 -38.53,-30.45 -40.1,-31.64l-65.97 -45.21c-56.34,-35.57 -88.04,-47.59 -109.03,-122.16 19.31,-6.29 -7.56,-4.39 64.38,8.13 -38.21,-120.86 -52.01,-50.46 -89.67,-134.98 0.12,0.04 60.01,49.11 110.43,9.77 -162.68,-106.43 -147.8,-149.55 -306.37,-148.2 -68.3,0.58 3.33,19.08 -71.28,-9.6 -4.02,-1.55 -9.97,-4.66 -14.03,-6.51 -148.9,-68.03 -104.29,-97.21 -76.89,-165.46 -192.82,-21.06 -8.64,-67.13 -347.97,-143.93 -157.12,-35.56 -62.66,1.8 -166.69,-76.72 -45.27,-34.16 27.73,-23.92 -65.59,-30.13 -83.08,-5.52 14.7,-5.96 -36.27,6.54 -4.94,1.21 -33.15,10.81 -35.83,11.64l-176.01 16.58c-49.08,10.57 -34.88,-16.05 -42.45,-33.29 -1.81,-4.1 -5.91,-17.51 -7.31,-22.15 -48.76,-161.97 -38.24,-67.91 -127.96,-163.83 -43.73,-46.76 30.82,-4.3 -56.52,-67.66 52,-37.01 22.02,-27.31 85.45,-45.27 -71.23,-109.19 -133.72,-33.18 -134.97,-113.73 35.46,-90.91 -22.01,-9.52 85.85,-62.78 -190.33,-48.01 -272.01,-99.88 -430.55,-87.74 -51.35,3.94 27.7,-14.89 -129.53,-18.44 -55.99,-1.27 -184.33,-5.87 -280.7,-8.73 -195.54,-5.81 -244.25,-95.4 -463.85,-112.36l-347.32 -55.37c-122.54,-4.92 -280.78,-17.62 -368.54,7.74 -147.96,42.77 -381.28,-19.15 -763.33,30.5l-517.38 35.05c-95.53,-0.42 -194.6,-2.42 -289.79,-0.55l-271.35 0.52c-44.73,145.19 24.72,-6.26 6.52,65.84 -404.24,0.94 -420.69,55.52 -554.83,67.2 -74.43,6.49 -427.73,27.16 -471.43,65.61l-20.67 24.95c34.53,28.21 0.98,7.61 50.17,26.76 19.04,7.41 39.22,8.7 59.32,15.75 -83.15,19.72 -136.42,50.28 -242.73,63.07l-530.2 93.99c-40.47,13.21 -63.45,20.47 -119.8,34.75 -171.77,43.57 -41.12,9.11 -120.1,58.79l-343.96 123.02c-149.66,48.23 -108.86,-18.04 -206.36,80.49 -69.84,70.58 5.27,24.72 -89.39,65.52 -76.34,32.9 -157.73,55.04 -226.39,105.95z"/>
   <path class="fil2" d="M-23765.68 2017.03c-28.61,154.79 6.72,553.36 -16.94,779.96 -23.47,224.8 -62.96,453.61 -128.91,661.09 -151.9,477.93 -280.62,708.56 -514.13,1084.38 186.9,40.59 15.93,42.68 261.21,179.04 0.93,0.52 18.11,-7.84 50.17,43.22 104.4,166.26 131.61,59.5 188.85,116.46 72.56,149.22 53.6,165.2 207.01,258.21 74.15,44.95 66.42,37.25 111.37,111.4 72.42,119.44 242.46,275.48 325.54,383.88l335.52 373.76c58.28,66.07 33.1,70.76 101.62,142.35l153.83 178.18c64.06,67.61 26.33,-38.23 36.78,46.42 0.17,1.39 -0.79,7.33 -0.8,8.8l125.32 250.33c38.09,47.84 19.68,19.58 44.79,69.34 0.31,0.62 18.85,42.32 19.7,44.27 43.93,100.69 8.62,85.58 10.18,218.78l80.95 49.86c2.76,1.64 9.04,4.37 11.86,6.26 113.8,76.62 101.48,247.51 229.98,271.41 114.02,-73.23 273.22,-437.25 340.44,-609.99 99.98,-256.96 149.59,-505.55 189.95,-784.45 88.79,-613.69 50.19,-1256.13 88.98,-1874.02 16.04,-361.93 2.91,-752.22 2.91,-1117.31 0,-122.09 31.34,-1002.52 -22.17,-1042.39l0 754.1 -78.05 109.51c-17.89,48.85 -10.67,136.92 -12.86,203.64l-64.33 -47.04c-2.98,144.31 -0.6,28.64 -66.53,88.6 37.52,27.95 31.05,124.27 7.6,163.4 -61.96,103.42 33.06,-35.29 -28.27,23.08l-45.86 79.63c-33.07,-39.96 3.53,-31.13 -66.53,-44.24 6.84,96.98 52.19,273.44 0,399.07 -58.1,-86.77 -52.25,-13.68 -50.17,-112.6 0.09,-4.11 41.86,-22.85 -38.53,-64.71 0,217.27 24.7,6.2 14.01,188.03 -1.76,30.01 -10.43,47.4 -14.01,55.8l-69.25 -75.92c-5.46,-2.64 -14.68,-4.12 -19.44,-5.97 -40.54,-15.73 -19.42,-1.32 -110.78,15.37 -41.13,-77.56 -144.12,-144.62 -192.74,-189.85 -47.16,-43.86 -9.11,-16.64 -56.89,-59.46 -21.49,-19.25 -47.25,-32.16 -79.79,-50.57 -17.96,-10.16 -59.42,-41.1 -62.79,-44.52 -83.6,-84.85 9.41,-29.32 -139.53,-108.37l-555.01 -412.11 66.53 -88.7 -277.43 -172.19c-36.62,-18.92 4.84,-23.99 -99.56,-27.4 -7.57,-38.07 -22.21,-131.55 -34.77,-153.07 -25.43,-43.62 -120.47,-24.81 -120.46,-379.1l-38.57 106.35z"/>
   <path class="fil2" d="M-23502.92 -4725.68c230.63,13.63 708.63,191.76 922.14,280.01 297.75,123.07 569.84,294.99 785.12,458.43 54.3,-90.64 45.45,19.91 229.22,75.17 161.27,48.51 206.48,105.07 262.09,112.63 236.24,32.1 97.3,-176.72 536.82,72.48 3.77,2.13 11.14,5.61 15.96,9.5 -41.38,9.98 -74.06,19.84 -109.03,34.12l138.54 85.89c3.83,1.97 11.5,4.9 16.55,8.5 -30.22,88.32 -69.92,28.76 23.29,117.66l-110.19 2.42c227.63,72.95 378.34,23.26 461.5,96.86 8.16,7.23 26.57,30.17 41.21,42.56 140.23,-71.99 178.01,51.48 237.94,-43.31 16.23,-25.69 25.24,14.13 1.07,-110.24l54.12 0.38c47.01,233.67 163.89,53.49 191.9,166.77 9.75,39.44 -3.08,40.09 -79.63,42.84 30.04,87.28 15.04,121.11 15.04,121.25 -0.02,5.64 6.8,51.11 8.02,65.4 267.66,-2.05 111.45,-60.64 340.05,-34.09 109.56,12.73 86.86,-14.46 159.07,-0.98l474.02 303.43c50.87,39.71 96.57,60.62 172.6,62.79l311.89 14.54c159.61,9.95 162.4,45.5 269.78,121.71 15.98,11.34 31.36,19.71 52.98,35.82 52.91,39.42 21.39,17.3 59.49,52.17l348.45 266.02 -75.86 -1492.08c-9.27,-61 -54.61,-381.33 -101.56,-408.61 -168.78,-4.08 -151.2,-172.29 -399.17,-177.41 2.98,-6.76 21.17,-28.76 20.93,-32.04 -5.78,-77.9 -227.92,-38.96 -305.56,-74.74l-256.39 -162.93c-4.07,-2.46 -9.56,-5.84 -13.58,-8.23 -91.9,-54.47 -129.22,-76.88 -265.91,-76.88 18.42,41.86 38.57,13.99 88.59,88.71 -113.33,0 -106.93,33.04 -108.45,33.83 -104.52,53.86 -211.13,-28.44 -265.49,-46.58 -250.28,-83.48 -53.63,63.13 -322.19,-100.28 -2.95,-1.8 -10.24,-5.68 -12.61,-7.07l-23.07 -12.96c122.27,0 106.8,-7.06 110.88,-22.18 -4.38,-1.75 -11.07,-1.6 -14.04,-1.75l-51.57 -1.3c-248.66,4.9 -91.58,-12.83 -256.78,-81.98 -435.35,-182.24 -181.57,-70.2 -564.55,-70.2 12.17,-40.4 58.16,-13.28 132.95,-44.36 -303.51,-60.29 -136.21,112.94 -582.18,-46.55l-29.17 -8.71c-58.23,-17.84 -40.18,0.7 -76.11,-55.61 -219.29,82.32 -286.1,57.52 -423.59,30.24 -187.99,-37.28 15.61,59.65 -190.19,17.67 -104.27,-21.28 -10.77,-21.82 -86.86,-32.57l-504.12 89.37c-17.9,-2.59 -65.13,-27.01 -90.94,-37.09l-108.21 -29.71c-59.57,-16.77 -106.99,-44.78 -192.67,-60.09 31.63,-71.88 46.47,15.89 22.07,-66.53 -71.26,27.44 -139.44,51.83 -221.65,66.53 -135.29,-131.17 94.82,117.4 -40.62,-57.85 -52.59,-68.04 -84.07,-62.46 -172.52,-94.14 -54.58,-19.55 -93.87,-38.55 -146.63,-53.93l-543.84 -135.9c-47.14,0.57 -42.92,-30.06 -94.43,31.35 141.74,15.49 133.04,30.32 155.23,66.53 -155.59,30.92 -230.57,-10.41 -328.93,32.34 -85.37,37.1 32.31,0.66 -84.16,32.72l-252.08 23.64c19.5,53.02 103.85,26.55 174.33,54.19 144.82,56.78 -28.73,-89.58 47.32,34.52 91,34.7 8.4,-7.35 18.76,30.12 22.87,82.78 -9.72,36.18 -63.11,58.7 33.4,77.35 -31.41,20.6 88.7,66.52 -5.36,5.12 -13.24,9.74 -17.62,13.57 -84.12,73.7 -57.94,37.92 -71.08,97.21 179.22,0 171.3,111.1 253.32,53.94 57,-39.72 22.43,-2.99 12.9,-53.94 123.82,8.73 218.15,22.17 376.89,22.17 -5.73,2.81 -13.16,6.2 -17.33,8.11l-82.49 36.24c-75.21,33.9 -41.71,1.57 -77.59,44.36 120.02,0 167.08,42.3 288.29,44.35l-39.9 16.56c-49.2,13.82 -5.38,3.84 -46.37,-0.02z"/>
   <path class="fil2" d="M-29940.35 2239.51c-126.14,1915.87 1880.6,3222.37 3584.75,2320.71 237.31,-125.56 476.78,-305.55 620.15,-466.6 115.53,-129.76 377.43,-438.09 432.13,-658.95l3.55 -61.52c-74.22,45.29 -45.27,46.56 -120.35,-10.37 -109.98,-83.38 -269.56,-115.09 -302.88,-81.69 -72.36,72.56 120.39,11.13 -2.68,156.97 -157.64,-15.94 -171.04,-141.08 -329.83,-153.56 -16.94,36.79 -0.35,-2.91 1.15,30.75 2.08,47.01 9.71,-15.64 1.99,35.57 -11.74,77.81 -56.76,45.3 -94.24,39.05 -3.93,-0.65 -10.52,-1.96 -14.6,-2.59 -5.71,-0.87 -79.03,-7.12 -80.07,-7.11 -149,2.15 -15.52,38.2 -162.24,10.44l-286.72 -92.55c-36.59,-19.31 -109.58,-57.46 -155.29,-68.53 -117.07,-28.36 -60.83,34.41 -171.32,-27.37 -103.81,-58.04 -28.58,-7.93 -34.53,-40.47l2.2 -32.08c1.96,-55.78 -90.13,-109.91 -145.01,-126.42 -73.88,-22.24 -50.36,8.07 -180.76,-40.78l-251.98 -104.14c-229.91,-95.55 -68.86,-71.99 -200.68,-107.17 140.57,-75.04 49.81,-28.55 130.7,-108.18 -99.92,-23.53 -112.47,-68.76 -220.65,-71.05 -2.1,-0.04 -10.38,5.74 -11.84,1.79 -1.38,-3.75 -7.66,0.77 -11.1,2.33 -9.63,27.3 -43.92,19.06 66.26,44.68 -88.78,53.28 -101.88,-21.04 -242.23,-3.99 -21.6,2.63 -0.37,5.94 -35.64,3.67l-331.57 -35.73c-120.1,-46.19 -70.32,-13.42 -143.1,-9.58 -29.74,1.57 -86.93,-21.45 -155.29,-25.68 -214.95,-13.31 -259.42,46.91 -328.61,-89.35l-65.74 65.74c-66.73,-119.11 -54.38,-118.52 -12.99,-177.78 117.41,-168.06 -29.69,118.64 32.33,-40.65 -79.82,-29.28 -15.88,18.73 -68.11,-87.44 -469.28,-5.11 -121.13,-92.84 -377.6,-71.37 -114.17,9.57 -130.65,128.02 -286.85,42.75 -3.55,-1.94 -11.4,-3.59 -13.87,-11.02 -2.49,-7.49 -8.82,-7.98 -13.22,-11.99 -4.2,97.35 -5.67,49.83 -23.62,71.26z"/>
   <path class="fil2" d="M-37320.99 5123.69c0,466.56 0,933.12 0,1399.69 0,236.55 0.01,473.09 0,709.63 -0.01,259.01 22.17,433.65 22.17,684.77 67.26,-103.49 11.45,-137.03 167.62,-186.13 106.93,-33.62 405.54,-168.05 479.19,-229.16 5.16,-4.29 48.02,-38.56 49.64,-39.66 122.46,-83 50.26,2.09 147.27,-139.17 110.31,-160.63 112.34,-96.13 186.86,-168.83 51.65,-50.38 14.21,-39.45 82.81,-95.06 41.47,-33.61 90.51,-50.84 124.62,-75.44 12.15,-8.76 145.68,-240.15 306.37,-138.71 3.09,1.96 8.88,5.64 11.69,8.17 2.96,2.67 7.49,7.91 10.11,11.18l37.64 94.8c40.68,-13.14 83.59,-20.17 126.15,-39.39 96.01,-43.38 12.29,-39.86 129.86,-46.89 150.58,-9.01 -38,27.04 130.06,-4.99 77.99,-14.87 86.87,-21.34 192.03,-21.74 -3.05,6.07 -10.69,6.29 -13.1,15.62l-26.28 28.1c-63.98,68.88 -47.74,-37.3 -47.64,98.59 40.19,17.08 33.38,4.6 77.19,17.45l180.97 46.2c3.24,1.74 8.91,6.07 11.83,7.96 59.75,38.6 -44.54,-1.36 30.14,25.92 54.91,-32.58 34.35,-6.83 75.75,-43.09l67.45 70.83c108.09,96.38 105.8,-10.88 120.88,100.7 8.56,63.32 21.07,56.5 -49.3,47.43 66.87,-0.08 126.34,-12.41 164.17,-10.05 85.87,5.35 51.76,32.18 133.7,21.39 -65.26,-207.64 -139.62,-392.9 -200.34,-619.44 -57.51,-214.58 -96.79,-462.91 -124.06,-691.65 -60.89,-510.7 -67.49,-1064.87 -79.39,-1583l-11.11 -279.06 -48.33 57.97c-3.03,3.52 -6.89,9.08 -9.81,12.24 -47.32,51.33 -90.18,57.08 -99.21,-48.66 -27.48,0.45 -63.32,5.21 -83.02,5.76 -121.95,3.34 -97.34,-28.47 -200.97,41.02l-27.55 18.63c-2.45,1.42 -8.22,4.39 -10.88,5.83 -158.88,85.73 -185.96,59.5 -232.36,77.57l-155.32 94.28c7.51,-85.42 12.73,-37.97 51.15,-113.49l55.67 -124.92c-67.65,5.04 -81.89,8.93 -107.05,19.23l-236.63 127.96c-83.28,45.9 -54.76,7.09 -63.23,68.49l-13.84 55.18c-67.27,118.05 -247.47,143.11 -347.9,228.13 -95.91,81.18 -98.73,72.45 -177.99,71.42 -231.19,-3 -220.88,-11.04 -300.58,93.85 -130.94,172.31 -293.97,170.41 -370.71,204.63 -136.49,60.89 -24.23,47.66 -136.39,127.91z"/>
   <path class="fil2" d="M-25967.05 5829.63c-8.21,69.55 -9.89,60.89 -44.62,95.19 119.67,62.45 106.23,75.03 264.75,73.37 139.5,-1.46 130.77,24.24 215.93,89.61 70.61,54.21 62.35,24.19 116.24,61.52 95.78,66.33 -4.09,86.75 123.36,142.99 104.96,46.33 97.75,-2.27 100.41,142.71 70.17,1.31 96.2,-12 150.07,49.34l117.82 267.77c17.94,136.01 129.33,263.62 223.99,366.44 6.57,7.13 13.52,11.97 32.49,34.18 44.04,51.54 70.67,100.8 108.49,157.97 20.5,30.98 34.24,50.49 53.81,79.07l43.66 67.37c75.39,109.78 150.11,77.47 161.07,120.07 0.52,2.03 2.19,10.01 2.89,12.48 34.34,120.52 65.58,49.11 105.14,131.53 75.84,158.05 -101.95,-28.25 85.67,402.27 53.22,122.13 61.52,57.85 112.85,129.61l-47.15 19.26c-91.91,30.63 -150.61,22.91 -237.29,36.91l124.93 10.48c315.68,23.75 942.42,-188.2 1197.84,-313.78 219.64,-107.99 738.09,-495.94 822.92,-711.56 -128.5,-23.9 -116.18,-194.79 -229.98,-271.41 -2.82,-1.89 -9.1,-4.62 -11.86,-6.26l-80.95 -49.86c-1.56,-133.2 33.75,-118.09 -10.18,-218.78 -0.85,-1.95 -19.39,-43.65 -19.7,-44.27 -25.11,-49.76 -6.7,-21.5 -44.79,-69.34l-125.32 -250.33c0.01,-1.47 0.97,-7.41 0.8,-8.8 -10.45,-84.65 27.28,21.19 -36.78,-46.42l-153.83 -178.18c-68.52,-71.59 -43.34,-76.28 -101.62,-142.35l-335.52 -373.76c-83.08,-108.4 -253.12,-264.44 -325.54,-383.88 -44.95,-74.15 -37.22,-66.45 -111.37,-111.4 -153.41,-93.01 -134.45,-108.99 -207.01,-258.21 -57.24,-56.96 -84.45,49.8 -188.85,-116.46 -32.06,-51.06 -49.24,-42.7 -50.17,-43.22 -245.28,-136.36 -74.31,-138.45 -261.21,-179.04 -100.63,139.73 -203.57,266.48 -311.49,394.42 -113.97,135.11 -231.59,224.54 -364.25,345.11 -232.81,211.61 -534.96,370.23 -865.65,547.64z"/>
   <path class="fil2" d="M-37298.82 7917.78c0,530.56 201.05,1325.97 421.35,1821.25 168.81,-71.51 105.36,42.83 248.91,-126.22 31.23,-36.79 28.55,-26.86 57.71,-55.31l49.46 -59.64c52.76,-65.28 64.65,-77.25 163.76,-81.8 -206.72,-59.01 368.76,-210.39 442.21,-230.5 85.65,-23.44 127.55,-77.45 198.07,-128.79l214.8 -169.08c364.6,-6.87 26.01,17.28 300.86,-52.77 227.85,-58.08 168.32,-104.73 269.45,-126.47 6,-1.29 23.21,-2.15 28.88,-1.99 101.73,2.83 -30.47,36.96 92.1,10.63 144.12,-30.95 57.7,-97.54 506.23,-98.54 12.72,-26.69 21.51,-58.02 34.5,-85.99 168.78,58.34 274.35,-42.78 441.87,97.55l-34.02 21.61c-125.43,75.36 -40.85,60.37 -117.66,52 106.38,-2.18 185.93,19.58 254.64,-27.88 39.78,-27.48 22.76,-34.68 103.23,-57.31 51.31,-14.43 84.6,-8.26 125,-32.89 -31.82,-62.19 -187.53,-211.51 -254.23,-287.38 -96.88,-110.21 -162.53,-183.55 -247.12,-306.9 -175.21,-255.49 -243.71,-422.77 -392.32,-717.55 -81.94,10.79 -47.83,-16.04 -133.7,-21.39 -37.83,-2.36 -97.3,9.97 -164.17,10.05 70.37,9.07 57.86,15.89 49.3,-47.43 -15.08,-111.58 -12.79,-4.32 -120.88,-100.7l-67.45 -70.83c-41.4,36.26 -20.84,10.51 -75.75,43.09 -74.68,-27.28 29.61,12.68 -30.14,-25.92 -2.92,-1.89 -8.59,-6.22 -11.83,-7.96l-180.97 -46.2c-43.81,-12.85 -37,-0.37 -77.19,-17.45 -0.1,-135.89 -16.34,-29.71 47.64,-98.59l26.28 -28.1c2.41,-9.33 10.05,-9.55 13.1,-15.62 -105.16,0.4 -114.04,6.87 -192.03,21.74 -168.06,32.03 20.52,-4.02 -130.06,4.99 -117.57,7.03 -33.85,3.51 -129.86,46.89 -42.56,19.22 -85.47,26.25 -126.15,39.39l-37.64 -94.8c-2.62,-3.27 -7.15,-8.51 -10.11,-11.18 -2.81,-2.53 -8.6,-6.21 -11.69,-8.17 -160.69,-101.44 -294.22,129.95 -306.37,138.71 -34.11,24.6 -83.15,41.83 -124.62,75.44 -68.6,55.61 -31.16,44.68 -82.81,95.06 -74.52,72.7 -76.55,8.2 -186.86,168.83 -97.01,141.26 -24.81,56.17 -147.27,139.17 -1.62,1.1 -44.48,35.37 -49.64,39.66 -73.65,61.11 -372.26,195.54 -479.19,229.16 -156.17,49.1 -100.36,82.64 -167.62,186.13z"/>
   <path class="fil2" d="M-24984.85 12244.83l1696.2 0c-10.56,-98.82 -20.56,-55.63 -76.49,-117.76l-50.36 -88.62c-40.98,-108.17 -23.85,-83.34 13.56,-118.69 -69.64,-30.07 -113.07,-93.8 -158.4,-152.48l-204 -280.14c-0.13,-0.6 11.03,-129.72 -113.43,-245 -37.55,-34.77 2.65,-16.52 -52.82,-35.6 34.81,-62.78 95.16,-34.71 -11.81,-141.63 -77.45,-77.4 -100.03,-38.45 -102.52,-187.68 -61.78,-0.49 -89.66,0.55 -157.65,-64.06 -28.02,-26.62 -29.2,-27.88 -54.73,-57.94 -4.01,-4.73 -15.77,-17.98 -18.97,-22.78 -63.75,-95.61 19.02,-82.11 -78.99,-164.18 -4.96,-4.15 -21.04,-14.76 -26.13,-18.91l-83.84 -93.72c-105.64,39.41 58.93,66.61 -158.52,-17.48l-96.85 -31.15c-2.97,-1.28 -9.04,-3.69 -11.68,-5.09l-42.24 -40.61c-69.1,-78.35 -69.86,-38.18 -108.91,-70.99 -2.35,-1.98 -6.76,-7.03 -9.02,-9.32l-130.17 -133.94c-92.48,-88.75 -155.79,-45.82 -174.59,-201.31 -125.56,75.66 -147.87,-26.67 -206.45,-85.9 -99.37,-100.47 -42.38,-24.62 -76.1,-27.81 -1.8,-0.17 -8.04,0.7 -9.77,0.33 -25.07,-5.24 22.45,65.77 -55.92,-64.57 -47.21,23.16 -68.8,38.4 -164.76,-15.29 -58.16,-32.55 -30.64,-9.63 -72.49,-51.2 -718.84,-14.65 -1457.66,8.87 -2179.95,6.39 -682.41,-2.35 -1482.46,35.38 -2148.33,-25.3 47.46,42.12 81.59,28.73 174.41,31.5l576.82 25.18c52.18,72.88 4.41,16.29 249.17,17.29l-88.18 42.36c128.21,-0.86 472.71,12.38 577.67,87.83l59.22 51.97c3.46,2.81 8.32,7.21 11.88,9.88 3.56,2.68 8.72,6.7 12.44,9.19 131.33,87.93 129.72,-10.88 321.81,95.56l162.06 61.18c170.35,74.53 185.57,-6.5 328.89,72.33 16.84,9.27 29.9,19.23 40.38,26.36l496.75 55.97c-26.35,-102.91 -15.42,-31.67 1.17,-63.99l27.33 12.88c124.6,43.38 57.97,-14.18 148.4,53.56 169.87,127.23 74.11,32.09 219.69,92.57 70.8,29.41 111.27,86.66 187.22,123.48 119.02,57.69 128,10.21 211.26,59.83 196.93,117.35 16.18,-54.74 147.93,65.25l344.17 280c126.19,72.54 59.98,41.53 135.5,108.31l144.97 121.35c62.71,51.3 81.03,37 132.27,110.89 19.4,27.98 -5.12,5.26 25.19,41.52 31.44,37.6 9.18,13.62 50,39.53 4.14,2.64 10.54,4.85 14.69,7.46 50.64,31.74 183.97,193.2 189.12,234.34 10.52,84.3 -67.65,-34.64 13.38,70.99l133.53 163.9c11.8,39.17 -3.5,-26.61 7.52,26.95 0.77,3.74 2.32,10.32 2.92,14.2 15.36,98.42 -19.96,80.41 41.11,143.14l121.88 142.95c28.07,36.59 36.53,-32.45 8.77,24.9 -0.06,0.13 -60.34,82.59 -149.96,-3.51l44.75 105.33z"/>
   <path class="fil2" d="M-37320.99 -2.47l0 1843.47c138.35,-16.76 82.2,-53.52 164.4,-120.67 84.09,-68.69 293.13,-62.23 601.2,-330.43l298.38 -212.87c93.34,-70.74 171.02,-64.89 257.62,-182.45 54.3,-73.72 -13.11,-30.38 66.34,-90.92l-43.4 -65.59c45.74,-29.44 43.39,-39.31 86.84,-69.97 28.06,-19.81 15.84,-9.57 41.07,-26l133.84 -106.28c42.74,-62.02 6.55,-45.5 56.83,-99.4 16.75,-17.96 158.91,-106.05 188.92,-124.29 116.73,-70.95 81.15,-77.49 74.64,-211.6l253.57 -127.84c122.3,-38.01 20.49,85.3 128.56,24.07 100.16,-56.75 -37.97,-49.76 119.11,-149.37 34.95,-22.17 53.77,-34.2 80.23,-54.69l3.7 -214.58c33.91,49.35 32.3,156.22 32.32,234.41 -42.46,-300.28 70.18,-1122 117.55,-1452.39 -153.79,65.56 16.66,57.62 -138.25,61.35 -0.9,-72.55 4.39,-97.46 20.19,-152.02 -88.44,6.47 -51.07,-4.29 -113.84,24.24l13.57 -33.46c-14.61,-80.25 17.17,2.13 -38.23,-54.09 -43.86,47.06 -101.8,68.68 -169.91,90.51l-274.13 127.7c-110.48,57.14 -109.44,134 -208.78,190.34 -39.41,22.35 -46.7,22.43 -87,46.8 -63.69,38.52 -7.65,15.88 -84.02,47.01 -409.09,166.74 -139,195.01 -359.36,285.21l-23.51 7.3c-115.07,39.21 -290.04,157.06 -389.44,224.06l-27 17.59c-236.88,149.43 -78.83,73.57 -196.69,204.5 -29.31,32.55 -117.85,94.05 -150.71,112.6 -519.51,293.4 -289.42,219.61 -434.61,337.75z"/>
   <path class="fil2" d="M-36877.47 9739.03c74.76,224.75 302.81,573.23 449.49,770.42 43.58,58.58 31.79,60.09 82.74,88.71 85.36,-4.47 18.24,3.88 103.83,-46.35 4.29,-2.52 9.71,-6.03 14.1,-8.49 238.2,-132.94 281.37,-64.23 397.69,-177.78 120.53,-117.67 82.77,-126.27 251.39,-153.99 191.45,-31.49 60.7,33.19 231.47,-41.73 2.67,-1.18 8.95,-3.49 11.68,-4.59 61.96,-25.08 -23.54,12.62 35.93,-12.32l62.62 -36.33c3.38,-2.84 8.18,-7.52 11.44,-10.59 2.49,-2.35 22.84,-26.75 31.48,-35.52 122.81,-124.87 251.24,-107.16 297.39,-127.32l242.43 -71.14c64.68,-11.11 125.01,-2.58 176.78,-21.53l81.3 -50.01c120.09,-64.58 100.59,-1.59 157.2,-92.07 93.58,-1.94 211.71,-13.39 289.55,-40.17 18.64,-6.4 95.66,-45.02 102.39,-49.82 167.05,-119.06 -173.31,2.8 269.01,-153.16 165.67,-58.41 192.1,-17.54 227.66,-14.54 177.72,15.04 144.04,-50.12 415.22,23.85l494.7 0.13c99.18,4.81 21.56,12.14 114.58,29.29 176.44,32.53 390.06,26.8 592.8,27.89l-22.07 -30.14c-158.07,-56.7 -335.63,-99.02 -490.59,-158.34 -828.81,-317.26 -1123.94,-703.01 -1252.21,-757.75 -40.4,24.63 -73.69,18.46 -125,32.89 -80.47,22.63 -63.45,29.83 -103.23,57.31 -68.71,47.46 -148.26,25.7 -254.64,27.88 76.81,8.37 -7.77,23.36 117.66,-52l34.02 -21.61c-167.52,-140.33 -273.09,-39.21 -441.87,-97.55 -12.99,27.97 -21.78,59.3 -34.5,85.99 -448.53,1 -362.11,67.59 -506.23,98.54 -122.57,26.33 9.63,-7.8 -92.1,-10.63 -5.67,-0.16 -22.88,0.7 -28.88,1.99 -101.13,21.74 -41.6,68.39 -269.45,126.47 -274.85,70.05 63.74,45.9 -300.86,52.77l-214.8 169.08c-70.52,51.34 -112.42,105.35 -198.07,128.79 -73.45,20.11 -648.93,171.49 -442.21,230.5 -99.11,4.55 -111,16.52 -163.76,81.8l-49.46 59.64c-29.16,28.45 -26.48,18.52 -57.71,55.31 -143.55,169.05 -80.1,54.71 -248.91,126.22z"/>
   <path class="fil2" d="M-34815.19 1310.22l-28.84 910.98c-73.14,43.8 -105.75,-44.38 -113.11,211.96 -98.53,11.11 -35.65,11.51 -100.58,25.46l-248.23 3.66c-21.05,79.25 -41.35,117.67 -130.71,136.45 -36.03,7.57 -64.83,43.79 -47.4,-14.09 15.41,-51.17 2.34,-5.83 23.96,-30.75l26.38 -23.59c-107.8,-8.01 -47.28,-26.86 -139.13,-2.1 -154.16,41.54 -52.13,67.23 -202.03,44.61 -3.62,-0.55 -10.23,-1.63 -13.98,-2.07 -44.68,-5.23 -27.84,12.03 -107.62,-10.48 -6.94,69.06 -17.5,61.95 -18.32,64.75l-14.11 51.01c-54.73,200.77 -153.79,134.19 -316.57,222.21 -240.2,129.88 -87.86,-27.64 -265.76,43.6l-116.15 42.08c-79.92,34.6 -260.25,236.29 -344.38,296.83 -28.08,20.2 -100.5,56.2 -111.68,65.44 -51.22,42.3 -21.87,32.57 -66.7,87.72l-100.07 99.78c-3.57,2.91 -8.7,7.35 -12.29,10.02l-58.48 31.58 0 1548.41c112.16,-80.25 -0.1,-67.02 136.39,-127.91 76.74,-34.22 239.77,-32.32 370.71,-204.63 79.7,-104.89 69.39,-96.85 300.58,-93.85 79.26,1.03 82.08,9.76 177.99,-71.42 100.43,-85.02 280.63,-110.08 347.9,-228.13l13.84 -55.18c8.47,-61.4 -20.05,-22.59 63.23,-68.49l236.63 -127.96c25.16,-10.3 39.4,-14.19 107.05,-19.23l-55.67 124.92c-38.42,75.52 -43.64,28.07 -51.15,113.49l155.32 -94.28c46.4,-18.07 73.48,8.16 232.36,-77.57 2.66,-1.44 8.43,-4.41 10.88,-5.83l27.55 -18.63c103.63,-69.49 79.02,-37.68 200.97,-41.02 19.7,-0.55 55.54,-5.31 83.02,-5.76 9.03,105.74 51.89,99.99 99.21,48.66 2.92,-3.16 6.78,-8.72 9.81,-12.24l48.33 -57.97 11.11 279.06 -3.25 -3742.16 -17.01 672.66z"/>
   <path class="fil2" d="M-22943.52 9398.47c51.01,52.19 -68.66,53.02 69.34,42.62 -1.37,92.63 -42.12,112.28 25.73,164.77 -46.56,19.11 -53.17,113.35 -57.71,95.6 -0.87,-3.44 -4.93,10.02 -6.77,15.28 3.8,1.96 10.3,3.11 12.19,3.92l23.15 9.69c220.57,119.39 37.79,15.91 142.91,36.27 63.26,12.25 70.92,87.54 197.48,46.45 14.48,157.79 51.8,17.26 67.03,393.13 4.94,122 56.67,150.8 130.1,338.98l97.39 525.67c2.12,149.69 -28.14,36.54 43.54,222.62l94.91 262.12c6.73,51.17 -36.14,91.27 -20.64,134.83l81.29 92.07c2.22,5.4 3.14,11.94 5.16,17.49 17.79,48.8 -10.76,-6.38 15.82,50.37 6.66,14.23 7.99,13.78 16.52,27.39 45.53,72.63 -5.17,-45.44 37.41,53.21 52.86,122.46 -66.78,144.65 82.29,266.35 314.91,17.47 809.58,-83.22 1056.9,-152.06 5.78,-110.18 -25.11,-110.71 -16.66,-218.71 5.77,-73.71 18.71,-109.44 18.64,-219.24 -103.81,41.13 99.04,-48.85 -36.77,20.25 -17.89,9.1 14.24,1.8 -49.48,22.16 10.21,-137.56 -6.16,-258.45 -72.78,-393.6l-15.13 -29.11c-20.23,-43.84 -6.23,-9.43 -19.45,-47.38 -80.29,-230.47 55.92,-152.98 -38.85,-494.83 -41.18,-148.55 -5.71,-72.02 -10.09,-190.45 -2.75,-74.23 -29.77,-79.08 -41.07,-168.9 -3.45,-27.35 -117.51,-239.14 -132.72,-519.24l-70.69 -638.71c-73.24,-209.4 -7.96,-346.8 -80.52,-404 -25.59,-20.17 -13.66,-5.34 -35.76,-11.12 -104.96,-27.46 -27.24,13.51 -56.4,-38.57 -83.22,17.86 -53.25,-2.23 -81.1,64.42 0.81,-104.85 34.33,-122.39 -56.68,-105.97l-285.88 221.56c-249.48,182.65 -734.11,434.69 -1032.65,504.67z"/>
   <path class="fil2" d="M-33497.92 4428.79l49.85 1061.74c5.29,-127.35 -25.72,-308.01 50.81,-407.13 108.28,-140.22 78.71,-61.52 153.66,-115.67l34.78 -30.38c3.51,-3.09 8.11,-7.91 11.68,-11.03 70.87,-61.93 -37.54,-19.76 115.71,-65.28 258.56,-76.8 132.45,-16.08 209.93,-96.88 7.83,-8.15 82.67,-65.41 88.4,-68.1 31.28,-14.68 106.8,-31.2 139.02,-39.18 -22.62,-52.11 -7.72,-6.48 -42.69,-39.43 -37.36,-35.2 -20.24,16.5 -42.73,-44.66l842.83 -4.05c128.18,7.83 55.69,10.62 141.72,38.47 144.47,46.75 142.38,-28.28 282.73,-38.93 15.39,59.83 -5.97,45.75 57.54,65.4 29.18,-62.6 20.63,-40.77 204.31,-46.06l14.44 34.38c112.15,254.52 240.67,-3.63 713.41,170.45 54.13,19.94 -5.09,37.63 69.4,8.23 -49.91,-123.07 -625.85,-710.98 -792.92,-1758.9 -79.13,-17.14 -74.12,-77.26 -80.68,-256.9l-73.22 107.27c-52.85,-16.92 -53.75,-37.63 -116.54,-43.71l-106.38 87.09c140.84,169.85 -14.96,161.33 -43.87,167.92 -3.5,0.8 -9.68,2.39 -13.26,3.3l-812.25 45.97c-1.65,-3.35 -0.87,-9.55 -0.92,-11.16l-0.22 -33.8c0.05,-2.12 0.73,-9.11 0.78,-11.02l0.36 -31.01c-142.35,38.36 35.03,65.2 -221.28,67.38 -126.87,1.08 -146.6,23.74 -257.47,31.74l-196.11 -0.87c-118.31,43.58 -66.16,57.24 -230.97,58.2l-4.84 218.71c-4.59,2.75 -11.48,5.3 -14.63,6.6 -3.2,1.32 -11.01,4.87 -14.97,6.45 -4.06,1.62 -11.1,4.5 -15.5,6.19l-66.72 22.74c-2.25,293.83 -75.11,655.73 -33.19,945.92z"/>
   <path class="fil2" d="M-21624.99 8672.24c91.01,-16.42 57.49,1.12 56.68,105.97 27.85,-66.65 -2.12,-46.56 81.1,-64.42 29.16,52.08 -48.56,11.11 56.4,38.57 22.1,5.78 10.17,-9.05 35.76,11.12 72.56,57.2 7.28,194.6 80.52,404l70.69 638.71c15.21,280.1 129.27,491.89 132.72,519.24 11.3,89.82 38.32,94.67 41.07,168.9 4.38,118.43 -31.09,41.9 10.09,190.45 94.77,341.85 -41.44,264.36 38.85,494.83 13.22,37.95 -0.78,3.54 19.45,47.38l15.13 29.11c66.62,135.15 82.99,256.04 72.78,393.6 63.72,-20.36 31.59,-13.06 49.48,-22.16 135.81,-69.1 -67.04,20.88 36.77,-20.25 0.07,109.8 -12.87,145.53 -18.64,219.24 -8.45,108 22.44,108.53 16.66,218.71l583.62 -200.14c53.38,-23.29 134.61,-45.91 168.96,-88.15 -66.46,-62.17 -19.19,14.59 -46.9,-102.24 -46.41,-195.65 -136.7,-372.64 26.62,-414.87 -5.45,-157.75 -52.38,-148.53 -36.55,-256.37 0.79,-5.39 2.9,-11.59 4,-16.67 27.02,-124.71 42.33,19.2 -31.51,-252.47 -71.97,-264.78 -73.59,-337.17 -92.6,-577.08 -12.68,-160.04 3.57,-7.15 -51.32,-121.26 -37.14,-77.19 9.97,-40.65 -39.64,-96.39l-27.12 -18.5c-115.85,-104.65 -79.26,-291.92 -95.34,-458.53 -8.81,-91.32 5.22,-66.21 0.28,-136.8 -0.05,-0.6 -10.39,-113.09 -11.94,-143.36 -5.88,-115.05 -37.18,-176.42 -81.12,-265.82 -36.34,-73.94 -190.57,-406.63 -194.03,-471.86 -4.68,-88.07 56.19,-126.7 -71.22,-507.22 -55.35,-165.27 53.06,-230.04 152.48,-463.84 39.68,-93.31 88.99,-167.98 68.66,-212.3 -73.83,101.55 -189.57,454.42 -439.94,790.16 -265.81,356.43 -508.34,547.6 -580.9,640.71z"/>
   <path class="fil2" d="M-25782.7 9701.31c41.85,41.57 14.33,18.65 72.49,51.2 95.96,53.69 117.55,38.45 164.76,15.29 78.37,130.34 30.85,59.33 55.92,64.57 1.73,0.37 7.97,-0.5 9.77,-0.33 33.72,3.19 -23.27,-72.66 76.1,27.81 58.58,59.23 80.89,161.56 206.45,85.9 18.8,155.49 82.11,112.56 174.59,201.31l130.17 133.94c2.26,2.29 6.67,7.34 9.02,9.32 39.05,32.81 39.81,-7.36 108.91,70.99l42.24 40.61c2.64,1.4 8.71,3.81 11.68,5.09l96.85 31.15c217.45,84.09 52.88,56.89 158.52,17.48l83.84 93.72c5.09,4.15 21.17,14.76 26.13,18.91 98.01,82.07 15.24,68.57 78.99,164.18 3.2,4.8 14.96,18.05 18.97,22.78 25.53,30.06 26.71,31.32 54.73,57.94 67.99,64.61 95.87,63.57 157.65,64.06 2.49,149.23 25.07,110.28 102.52,187.68 106.97,106.92 46.62,78.85 11.81,141.63 55.47,19.08 15.27,0.83 52.82,35.6 124.46,115.28 113.3,244.4 113.43,245l204 280.14c45.33,58.68 88.76,122.41 158.4,152.48 -37.41,35.35 -54.54,10.52 -13.56,118.69l50.36 88.62c55.93,62.13 65.93,18.94 76.49,117.76l867.8 0c4,-3.62 10.77,-14.26 12.06,-10.8l31.1 -55.73c-23.36,-31.82 -18.63,-18.46 -31.73,-22.32l-31.89 0.14c-7.22,-155.53 32.08,-137.52 -19.12,-270.96 -59.93,-156.22 -23.14,-196.54 -175.56,-275.05 -74.38,-38.32 -48.07,-19.9 -87.01,-80.69l-117.16 -216.51c-70.41,25.71 -16.3,34.09 -84.48,63.01l-3.35 -173.38c-28.37,-25.53 -18.26,-14.47 -49.51,-40.01 -40.32,-32.94 -34.3,-20.82 -56.01,-53.81 -28.89,-43.9 -27.47,-79.33 -59.43,-141.18 -15.63,-30.27 -27.87,-45.83 -33.99,-55.92 -3.23,-5.34 -13.3,-19.42 -15.81,-24.6 -44.44,-91.77 19.83,-65.5 -52.56,-194 -3.17,4.72 -6.37,7.06 -7.18,15.46l-18.35 134.02c-81.48,-74.5 -91.36,-69.54 -125.71,-194.36 -2.76,-1.02 -8.11,-2.51 -8.82,0.4 -0.68,2.85 -7.69,0.28 -8.65,0.19 -0.94,-0.08 -7.35,0.02 -8.51,-0.16 -53.54,-8.37 -54.44,-55.76 -101.92,-140.27l-39.46 -50.82c-41.02,-58.63 -30.75,-4.86 -31.87,-118.01l80.71 71.55c-8.8,-108.16 -3.74,-24.47 -35.72,-94.43l-9.46 -23.6c-38.41,-95.52 9.22,-70.56 -104.69,-46.61 -2.03,-109.78 -22.54,-124.48 -81.44,-183.31 -87.26,-87.15 -116.9,-44 -165.84,-94.63l-37.06 -61.29c-37.14,-40.62 -106.43,-108.38 -128.08,-169.35 -0.73,-2.05 -1.78,-8.75 -2.19,-10.55 -15.85,-69.37 -0.74,-42.58 58.76,-61.93 140.98,-45.85 -92.13,57.3 32.88,-10.7l55.55 -40.87c-629.18,48.91 -1266.19,95.44 -1900.35,87.56z"/>
   <path class="fil2" d="M-37320.99 1841l0 837.14c67.67,-8.4 185.51,-112.82 219.36,-148.01 63.58,-66.11 151.21,-115.13 268.51,-118.53 47.35,-9.6 4.72,-6.43 44.73,-54.21 3.01,-3.59 6.6,-9.42 9.89,-12.97 3.34,-3.61 7.51,-8.87 11.15,-12.29l469.68 -245.17c109.64,-39.35 71.13,102.49 225.89,-57.05 3.38,-3.48 7.55,-8.6 11.06,-11.98 65.15,-62.87 411.62,-175.28 484.91,-189.76 330.37,-65.31 108.74,-142.76 434.14,-156 -27.63,-62.41 -19.36,-63.69 -17.46,-150.22l217.27 -115.06c117.6,-48.03 -3.29,21.45 63.5,-45.87 54.17,-54.6 -30.74,-9.28 63.17,-50.8l17.01 -672.66 21.36 -725.03c-0.02,-78.19 1.59,-185.06 -32.32,-234.41l-3.7 214.58c-26.46,20.49 -45.28,32.52 -80.23,54.69 -157.08,99.61 -18.95,92.62 -119.11,149.37 -108.07,61.23 -6.26,-62.08 -128.56,-24.07l-253.57 127.84c6.51,134.11 42.09,140.65 -74.64,211.6 -30.01,18.24 -172.17,106.33 -188.92,124.29 -50.28,53.9 -14.09,37.38 -56.83,99.4l-133.84 106.28c-25.23,16.43 -13.01,6.19 -41.07,26 -43.45,30.66 -41.1,40.53 -86.84,69.97l43.4 65.59c-79.45,60.54 -12.04,17.2 -66.34,90.92 -86.6,117.56 -164.28,111.71 -257.62,182.45l-298.38 212.87c-308.07,268.2 -517.11,261.74 -601.2,330.43 -82.2,67.15 -26.05,103.91 -164.4,120.67z"/>
   <path class="fil2" d="M-33497.92 4428.79c-41.92,-290.19 30.94,-652.09 33.19,-945.92l66.72 -22.74c4.4,-1.69 11.44,-4.57 15.5,-6.19 3.96,-1.58 11.77,-5.13 14.97,-6.45 3.15,-1.3 10.04,-3.85 14.63,-6.6l4.84 -218.71c164.81,-0.96 112.66,-14.62 230.97,-58.2l196.11 0.87c110.87,-8 130.6,-30.66 257.47,-31.74 256.31,-2.18 78.93,-29.02 221.28,-67.38l-0.36 31.01c-0.05,1.91 -0.73,8.9 -0.78,11.02l0.22 33.8c0.05,1.61 -0.73,7.81 0.92,11.16l812.25 -45.97c3.58,-0.91 9.76,-2.5 13.26,-3.3 28.91,-6.59 184.71,1.93 43.87,-167.92l106.38 -87.09c62.79,6.08 63.69,26.79 116.54,43.71l73.22 -107.27c6.56,179.64 1.55,239.76 80.68,256.9 -57.93,-299.21 -83.83,-939.58 -4.16,-1219.86 -0.12,7.38 -1.14,26.58 -2.2,31.23 -20.68,90.86 -7.21,26.78 -20.26,57.48l0 -133.01 -288.29 66.48c14.53,94.68 -20.99,19.87 88.71,66.53 -107.82,1.82 -157.41,23.62 -289.55,23.07 -274.46,-1.13 -179.07,-51.16 -275.82,29.61 -136.52,114 -145.74,34.68 -355.29,63.35 -161.55,22.11 -275.92,126.77 -429.63,129.64 -102.39,1.92 -124.27,-29.98 -243.6,-24.9 -92.62,3.93 -125.49,23.16 -246.62,23.16 -7.69,111.35 -25.51,86.49 -133.06,88.71l-29.04 -74.34c-83.57,-290.97 5.32,-1027.82 -48.6,-1242.85l-9.3 -535.59c-42.17,129.8 -17.09,1727.66 -17.02,2008.12 0.1,340.05 1.27,680.05 1.17,1020.1 -0.04,180.6 27.73,900.93 0.68,1010.08z"/>
   <path class="fil2" d="M-23882.35 9613.75l-55.55 40.87c-125.01,68 108.1,-35.15 -32.88,10.7 -59.5,19.35 -74.61,-7.44 -58.76,61.93 0.41,1.8 1.46,8.5 2.19,10.55 21.65,60.97 90.94,128.73 128.08,169.35l37.06 61.29c48.94,50.63 78.58,7.48 165.84,94.63 58.9,58.83 79.41,73.53 81.44,183.31 113.91,-23.95 66.28,-48.91 104.69,46.61l9.46 23.6c31.98,69.96 26.92,-13.73 35.72,94.43l-80.71 -71.55c1.12,113.15 -9.15,59.38 31.87,118.01l39.46 50.82c47.48,84.51 48.38,131.9 101.92,140.27 1.16,0.18 7.57,0.08 8.51,0.16 0.96,0.09 7.97,2.66 8.65,-0.19 0.71,-2.91 6.06,-1.42 8.82,-0.4 34.35,124.82 44.23,119.86 125.71,194.36l18.35 -134.02c0.81,-8.4 4.01,-10.74 7.18,-15.46 72.39,128.5 8.12,102.23 52.56,194 2.51,5.18 12.58,19.26 15.81,24.6 6.12,10.09 18.36,25.65 33.99,55.92 31.96,61.85 30.54,97.28 59.43,141.18 21.71,32.99 15.69,20.87 56.01,53.81 31.25,25.54 21.14,14.48 49.51,40.01l3.35 173.38c68.18,-28.92 14.07,-37.3 84.48,-63.01l117.16 216.51c38.94,60.79 12.63,42.37 87.01,80.69 152.42,78.51 115.63,118.83 175.56,275.05 51.2,133.44 11.9,115.43 19.12,270.96l31.89 -0.14c13.1,3.86 8.37,-9.5 31.73,22.32l-31.1 55.73c-1.29,-3.46 -8.06,7.18 -12.06,10.8l534.47 -47.53c-149.07,-121.7 -29.43,-143.89 -82.29,-266.35 -42.58,-98.65 8.12,19.42 -37.41,-53.21 -8.53,-13.61 -9.86,-13.16 -16.52,-27.39 -26.58,-56.75 1.97,-1.57 -15.82,-50.37 -2.02,-5.55 -2.94,-12.09 -5.16,-17.49l-81.29 -92.07c-15.5,-43.56 27.37,-83.66 20.64,-134.83l-94.91 -262.12c-71.68,-186.08 -41.42,-72.93 -43.54,-222.62l-97.39 -525.67c-73.43,-188.18 -125.16,-216.98 -130.1,-338.98 -15.23,-375.87 -52.55,-235.34 -67.03,-393.13 -126.56,41.09 -134.22,-34.2 -197.48,-46.45 -105.12,-20.36 77.66,83.12 -142.91,-36.27l-23.15 -9.69c-1.89,-0.81 -8.39,-1.96 -12.19,-3.92 1.84,-5.26 5.9,-18.72 6.77,-15.28 4.54,17.75 11.15,-76.49 57.71,-95.6 -67.85,-52.49 -27.1,-72.14 -25.73,-164.77 -138,10.4 -18.33,9.57 -69.34,-42.62 -287.34,118.34 -622.94,154.6 -938.83,215.28z"/>
   <path class="fil2" d="M-33391.46 -1100.51l0.29 103.65c30.67,-59.94 6.23,-90.17 53.08,-162.56 67.17,-103.76 114.02,-108.1 186.21,-143.64 26.84,58.1 3.03,-7.7 -22.17,85.46 138.63,1.44 65.54,-15.3 92.29,41.72 55.43,-48.93 46.53,-50.55 119.25,-96.19 76.1,-47.78 59.09,-29.77 103.27,-115.76 127.38,-247.91 70.58,-206.15 236.75,-208.11 -38.44,-84.84 120.75,-124.7 91.49,-207.29 -8.84,-24.97 6.06,6.71 -23.13,-31.23 -88.17,-114.62 27.61,92.37 -20.56,-23.37l223.46 -280.13c47.01,-63.71 142.27,-67.98 141.27,-175.7 -0.33,-36.27 -40.12,-14.97 21.23,-88.31 53.21,-63.6 351.74,-245.92 389.39,-276.9 217.79,-179.24 62.36,-46.62 214.51,-138.44 40.4,-24.38 71.34,-49.86 109.33,-64.98 207.15,-82.42 127.46,-78.17 214.18,-119.46l143.64 -28.99c121.38,-18.62 114.05,-25.92 201.46,-70.06l29.6 -14.59c4.52,-2.16 10.24,-5.09 14.8,-7.18 4.55,-2.08 10.25,-4.96 14.86,-6.93 89.44,-38.11 184.55,-32.47 275.64,-80.49 114.85,-60.54 60.41,-88.2 229.05,-91.27l772.15 -79.42c146.74,-20 64.71,-27.79 110.97,-49.85 42.82,-20.41 97.8,-3.95 131.49,-5.32 68.5,-2.76 84.1,-38.71 288.94,-51.23 36.52,-2.24 51.97,-0.76 86.07,-12.14 73.84,-24.65 0.26,22.14 56.87,-35.02l-328.08 -1.15c151.61,29.5 717.69,1.89 916.39,0.59l1862.8 -11.14c438.04,1.59 254.15,-28.72 442.73,-40.1 133.75,-8.06 331.7,-13.68 460.8,4.41 -107.16,21.29 -2234.6,-0.28 -2544.57,-0.38 -845.93,-0.27 -1693.57,-3.06 -2536.09,51.66 -1099.62,71.43 -2019.41,477.76 -2474.74,1406.92 -104.67,213.6 -312.25,756.51 -284.92,1022.92z"/>
   <path class="fil2" d="M-37320.99 2678.14l0 897.14 58.48 -31.58c3.59,-2.67 8.72,-7.11 12.29,-10.02l100.07 -99.78c44.83,-55.15 15.48,-45.42 66.7,-87.72 11.18,-9.24 83.6,-45.24 111.68,-65.44 84.13,-60.54 264.46,-262.23 344.38,-296.83l116.15 -42.08c177.9,-71.24 25.56,86.28 265.76,-43.6 162.78,-88.02 261.84,-21.44 316.57,-222.21l14.11 -51.01c0.82,-2.8 11.38,4.31 18.32,-64.75 79.78,22.51 62.94,5.25 107.62,10.48 3.75,0.44 10.36,1.52 13.98,2.07 149.9,22.62 47.87,-3.07 202.03,-44.61 91.85,-24.76 31.33,-5.91 139.13,2.1l-26.38 23.59c-21.62,24.92 -8.55,-20.42 -23.96,30.75 -17.43,57.88 11.37,21.66 47.4,14.09 89.36,-18.78 109.66,-57.2 130.71,-136.45l248.23 -3.66c64.93,-13.95 2.05,-14.35 100.58,-25.46 7.36,-256.34 39.97,-168.16 113.11,-211.96l28.84 -910.98c-93.91,41.52 -9,-3.8 -63.17,50.8 -66.79,67.32 54.1,-2.16 -63.5,45.87l-217.27 115.06c-1.9,86.53 -10.17,87.81 17.46,150.22 -325.4,13.24 -103.77,90.69 -434.14,156 -73.29,14.48 -419.76,126.89 -484.91,189.76 -3.51,3.38 -7.68,8.5 -11.06,11.98 -154.76,159.54 -116.25,17.7 -225.89,57.05l-469.68 245.17c-3.64,3.42 -7.81,8.68 -11.15,12.29 -3.29,3.55 -6.88,9.38 -9.89,12.97 -40.01,47.78 2.62,44.61 -44.73,54.21 -117.3,3.4 -204.93,52.42 -268.51,118.53 -33.85,35.19 -151.69,139.61 -219.36,148.01z"/>
   <path class="fil2" d="M-33473.45 926.08c53.92,215.03 -34.97,951.88 48.6,1242.85l29.04 74.34c107.55,-2.22 125.37,22.64 133.06,-88.71 121.13,0 154,-19.23 246.62,-23.16 119.33,-5.08 141.21,26.82 243.6,24.9 153.71,-2.87 268.08,-107.53 429.63,-129.64 209.55,-28.67 218.77,50.65 355.29,-63.35 96.75,-80.77 1.36,-30.74 275.82,-29.61 132.14,0.55 181.73,-21.25 289.55,-23.07 -109.7,-46.66 -74.18,28.15 -88.71,-66.53l288.29 -66.48 0 133.01c13.05,-30.7 -0.42,33.38 20.26,-57.48 1.06,-4.65 2.08,-23.85 2.2,-31.23 54.72,-530.06 310.03,-1055.44 541.51,-1430.72 -123.33,-30.76 -10.84,83.38 -237.91,93.89 0.64,143.53 60.59,63.52 -54.34,167.07 -18.91,17.03 -46.71,23.04 -82.74,110.57 -29.67,72.08 -6.98,102.62 -69.87,178.55 -64.59,78 -91.55,42.4 -148.7,99.24 -48.32,48.07 4.96,-63.78 -24.82,39.52 -57.86,-5.12 19.72,-3.58 65.65,42.63 -50.89,0.8 -160.85,-9.35 -165.52,-8.44 -51.44,9.95 -19.41,37.66 -91.91,56.73 -79.62,20.94 -28.84,-45.92 -221.65,53.01 -178.17,91.41 -149.83,28.86 -306.82,71.27 -132.65,35.85 -170.98,9.69 -308.15,26.16 -89.31,10.73 -186.35,66.09 -273.73,79.29 -136.17,20.57 -170.09,-15.21 -277.83,7.63l-607.44 59.62 -8.98 -541.86z"/>
  </g>
  <g id="_1831275983264">
   <path class="fil2" d="M-63090.18 4503.63c210.78,73.56 481.39,215.13 699.64,316.93 229.88,107.23 477.45,211.91 717.57,309.73l1480.35 575.08c-0.02,826.72 -44.68,7269.75 58.59,7471.47l-15.81 -8789.84c75.1,-102.63 569.11,-63.27 692.81,-63.27l2189.69 2.57 1057.11 -1164.71c142.46,-108.25 267.83,-206.98 434.61,-305.81 585.78,-347.14 1358.54,-686.11 2279.53,-681.39 1438.02,7.36 2667.22,516.04 3585.16,1597.54 113.66,133.91 236.29,308.37 327.71,450.72 608.23,62.97 1101.58,254.91 1497.33,545.42 173.88,127.63 402.82,328.27 529.13,494.85 69.26,91.36 373.22,593.54 428.74,633.94 57.45,-46.5 1521.92,-568.34 1741.93,-656.27 583.72,-233.28 1126.32,-499.32 1696.26,-747.63 0,-1432.13 0,-2864.26 0,-4296.39 0,-626.44 80.63,-1583.48 -73.77,-2077.9 -449.65,-1439.94 -1942.04,-1131.97 -3171.38,-1131.97 -3586.13,0 -7172.25,0 -10758.38,0 -796.72,0 -3745.84,-88.5 -4246.08,57.26 -1464.23,426.66 -1150.74,1994.14 -1150.74,3152.61 0,1435.69 0,2871.38 0,4307.06zm3976.2 -4306.84c-792.42,161.58 -1401.42,913.29 -1154.96,1906.7 191.44,771.6 1078.09,1249.53 2069.16,1046.38 734.19,-150.49 1366.91,-1007.94 1106.99,-1932.65 -205.52,-731.16 -1049.14,-1218.64 -2021.19,-1020.43z"/>
   <path class="fil2" d="M-43689.83 4492.96c-569.94,248.31 -1112.54,514.35 -1696.26,747.63 -220.01,87.93 -1684.48,609.77 -1741.93,656.27 14.25,186.48 168.44,492.55 229,719.44 234.54,878.8 202.97,1758.81 202.53,2680.8 -0.62,1289.74 -1.46,2579.49 -2.41,3869.23l-2930.28 28.89 -56.95 -3147.35c-49.39,250.01 -1032.26,913.07 -1251.52,1034.26 -378.45,209.18 -813.46,378.12 -1248.58,482.98 -141.38,34.08 -337.94,57.54 -463.21,105.34 0,255.32 0,510.65 0,765.98 0,239.4 45.43,643.04 -64.85,759.28l-2899.64 -17.09 3.01 -224.7c-155.97,-13.57 -295.72,-96.44 -438.36,-155.95 -522.74,-218.08 -974.41,-558.51 -1186.83,-655.33l2.55 1035.54 -2900.47 -1.34c-103.27,-201.72 -58.61,-6644.75 -58.59,-7471.47l-1480.35 -575.08c-240.12,-97.82 -487.69,-202.5 -717.57,-309.73 -218.25,-101.8 -488.86,-243.37 -699.64,-316.93l0 8073.89c0,622.59 -79.63,2205.01 57.21,2658.84 184.59,612.23 750.62,1152.65 1528.84,1151.93 5376.29,-4.97 10824.68,-29.08 16192.56,-0.41 794.51,4.24 1375.34,-542.27 1556.39,-1159.67 141.69,-483.2 65.35,-1948.98 65.35,-2615.42l0 -8119.83z"/>
   <path class="fil2" d="M-60149.84 4387l2914.07 -1.19 -0.34 7756.83c212.42,96.82 664.09,437.25 1186.83,655.33 142.64,59.51 282.39,142.38 438.36,155.95l-0.92 -8568.62 2901.23 -0.49 0.55 1205.95c132.95,-77.09 453.47,-687.36 1202.11,-1078.3 630.78,-329.39 1153.09,-359.32 1924.73,-289.81 -91.42,-142.35 -214.05,-316.81 -327.71,-450.72 -917.94,-1081.5 -2147.14,-1590.18 -3585.16,-1597.54 -920.99,-4.72 -1693.75,334.25 -2279.53,681.39 -166.78,98.83 -292.15,197.56 -434.61,305.81l-1057.11 1164.71 -2189.69 -2.57c-123.7,0 -617.71,-39.36 -692.81,63.27z"/>
   <path class="fil2" d="M-52714.29 13195.71c110.28,-116.24 64.85,-519.88 64.85,-759.28 0,-255.33 0,-510.66 0,-765.98 125.27,-47.8 321.83,-71.26 463.21,-105.34 435.12,-104.86 870.13,-273.8 1248.58,-482.98 219.26,-121.19 1202.13,-784.25 1251.52,-1034.26l56.95 3147.35c-0.07,-1381.67 -1.66,-2763.36 -1.93,-4145.04 -0.14,-654.9 47.82,-1263.71 -224.67,-1804.72 -249.15,-494.66 -564.33,-759.14 -1312.33,-754.22 -539.12,3.54 -1014.75,366.61 -1285.13,743.44 -281.41,392.2 -257.03,1253.25 -257.47,1815.5 -1.07,1381.84 -3.09,2763.69 -3.58,4145.53z"/>
  </g>
  <path class="fil3" d="M-64925.83 31942.24c0,2187.05 1268.72,4184.06 3056.89,5092.28 1337.24,679.2 1141.17,308.34 1141.17,-929.5 -425.88,9.49 -1193.33,252.43 -1729.68,-492.83 -99.03,-137.6 -110.21,-211.44 -186.91,-377.53 -398.03,-861.88 -709.4,-660.81 -799.8,-999.36 274.68,-131.8 497.57,-54.12 731.77,114.89 189.13,136.5 227.28,192.8 354.83,386.01 381.4,577.75 829.55,781.35 1514.09,547.56 182.69,-62.39 132.46,-54.69 172.73,-250.6 57.86,-281.48 188.76,-384.01 295.74,-586.2 -604.87,-13.47 -1392.61,-316.34 -1825.77,-749.5 -952.82,-952.82 -831.56,-3074.22 -114.5,-3554.39 -168.61,-723.7 -138.32,-771.8 35.27,-1516.94 567.1,-132.12 1514.16,564.44 1516.95,564.44 277.95,0 1052.61,-329.23 2324.23,-101.72 445.79,79.76 396.8,177.78 688.49,-25.19 268.87,-187.09 924.73,-531.12 1326.45,-437.53 119.68,513.71 141.11,392.27 141.11,987.78 0,181.99 -105.08,439.1 -83.85,514.98 63.97,228.76 542.46,359.46 542.46,1672.24 0,1654.86 -1002.36,2520.81 -2504.72,2645.83 104.14,196.83 208.3,246.55 295.5,586.44 86.91,338.77 57.81,1296.32 57.26,1706.63 -0.96,714.35 45.21,839.52 1093.9,317.76 364.22,-181.21 723.25,-435 1043.33,-685.28 123.91,-96.88 197.36,-185.53 305.77,-293.95 221.46,-221.47 376.38,-371.61 571.14,-628.3 2871.26,-3784.28 179.98,-9223.02 -4389.96,-9223.02 -1274.44,0 -2715.6,538.85 -3589.96,1348.93l-322.3 312.7c-5.24,5.01 -12.77,12.26 -17.89,17.38 -1001.24,1001.21 -1643.74,2497.37 -1643.74,4035.99z"/>
  <g id="_1831275974016">
   <path class="fil4" d="M-13813.94 22878.22c0,140.33 -59.88,234.04 -153.18,311.94l-479.87 392.22c-627.84,548.84 -1531.68,1234.17 -2206.82,1804.81l-4405.18 3618.07c-172.95,140.94 -363.93,351.47 -545.65,355.52 -35.37,-151.83 14.8,-234.92 69.06,-396.06l915.61 -2747.18c106.65,-320.04 1021.15,-2930.32 1021.15,-3193.97 0,-554.8 -32.72,-491.06 -221.59,-1057.48l-1715.17 -5058.09c-54.26,-161.14 -104.43,-244.23 -69.06,-396.06 208.04,4.64 849.43,599.77 1013.63,730.56l6603.4 5344.28c80.76,61.29 173.67,151.27 173.67,291.44z"/>
   <path class="fil4" d="M-28697.66 29273.57c0,-158.53 953.83,-2933.97 1028.41,-3157.64l792.07 -2347.46c283.68,-858.07 293.38,-841.72 7.21,-1700.5 -85.53,-256.7 -173.52,-518.99 -261.6,-784.91l-1322.29 -3910.26c-407.7,-1165.94 -316.72,-1018.25 502.86,-357.51l6184.61 5007.24c93.9,73.32 146.96,121.4 239.8,196.24 95.24,76.78 160.55,130.18 258.23,206.9 649.74,510.29 449.68,605.84 -523.07,1370.41l-735.95 601.26c-557.75,497.37 -1413.73,1123.11 -1962.65,1612.93 -86.75,77.4 -169.57,134.6 -258.27,206.84l-2951.83 2426.08c-175.95,141.76 -318.12,265.12 -494.19,406.98 -92.41,74.45 -503.34,480.52 -503.34,223.4z"/>
  </g>
  <path class="fil5" d="M9333.65 6802.49l0 6053.68c0,325.56 259.7,491.06 550.33,491.06l3327.41 0 0 499.54 -1193.8 0c-94.7,0 -151.12,177.88 -193.09,247.17 -84.91,140.16 -161.27,305.36 -233.82,426.59l-233.49 426.9 5985.94 0c-7.71,-33.12 -20.96,-45.69 -36.57,-73.49l-194.96 -355.38c-25.48,-50.6 -49.39,-93.88 -78.16,-141.97l-156.09 -284.18c-43.28,-83.16 -104.91,-245.64 -194.62,-245.64l-1193.8 0 0 -499.54 3318.94 0c300.93,0 558.8,-168.16 558.8,-465.66l0 -6104.48c0,-247.86 -231.73,-448.73 -524.93,-448.73l-8966.22 0c-133.42,0 -207.88,14.15 -307.57,73.43 -37.12,22.08 -42.64,31.03 -72.29,54.72 -101.36,80.97 -162.01,204.64 -162.01,345.98z"/>
  <g style="clip-path:url(#id0)">
   <image style="clip-path:url(#id1)" x="10261.21" y="5461.21" width="8437.65" height="9507.59" xlink:href="typebranco_Images\typebranco_ImgID1.png"/>
  </g>
  <g id="_1831448024176">
   <g style="clip-path:url(#id2)">
    <image style="clip-path:url(#id3)" x="17339.31" y="10288.38" width="4414.39" height="4974.16" xlink:href="typebranco_Images\typebranco_ImgID2.png"/>
   </g>
   <g style="clip-path:url(#id4)">
    <image x="18092.92" y="10099.88" width="3018.93" height="5439.82" xlink:href="typebranco_Images\typebranco_ImgID3.png"/>
   </g>
  </g>
  <g id="_1831448003856">
   <path class="fil5" d="M1322.45 28006.19c0,429.93 -33.45,1183.64 194.66,1498.68 74.36,102.69 173,169.75 281,235.46 200.79,122.14 657.61,299.74 881.84,405.09l179.78 74.23c66.13,26.63 126.38,47.35 189.91,72.55 382.3,151.65 789.79,253.21 1187.06,353.88 582.19,147.51 1182.07,216.29 1786.04,279.82 168.9,17.77 351.91,12.59 488.54,27.93l500.77 15.7 456.87 0c22.05,-1.52 42.83,-3.54 61.91,-6.15 40.29,-5.53 83.62,-2.45 124.72,-2.29l614.46 -37.47c36.31,-5.33 87.33,-7.23 116.07,-10.93l352.46 -37.01c303.56,-34.83 603.19,-85.07 897.48,-143.92 349.05,-69.81 701.26,-154.9 1041.1,-262.76 449.15,-142.56 883.58,-319.72 1315.78,-504.56l353.16 -171.78c98.96,-49.48 242.34,-119.88 323.86,-192.6 111.74,-99.7 135.62,-182.02 177.4,-347.54 47.11,-186.65 73.62,-439.27 82.94,-709.16l0 -463.59c-9.79,-299.27 -37.83,-586.5 -79.71,-798.2 -48.9,-247.18 -134.03,-463.26 -241.96,-680.91 -137.7,-277.67 -408.42,-548.25 -685.8,-685.8 -216.76,-107.49 -438.84,-183.65 -672.51,-250.36l-344.6 -112.6c-113.92,-37.82 -219.23,-84.88 -328.07,-129.13 -331.73,-134.88 -684.16,-327.14 -983.72,-506.41l-213.87 -133.27c-108.51,-64.03 -183.86,-129.7 -352.9,-129.7 -246.42,0 -364.06,206.3 -364.06,423.33 0,262.17 433.58,449.45 648.23,579.43 45.63,27.63 86.04,47.33 130.32,72.89l268.53 146.33c180.49,97.2 369.38,178.88 555.9,265.37 147.19,68.26 298.47,113.58 445.87,172.2 197.79,78.67 405.8,134.97 615.06,206.2 143.96,49.01 289.99,108.89 398.89,210.71 118.68,110.96 188.19,187.08 257.45,360.63 172.44,432.13 168.02,943.47 168.02,1423.71 0,123.73 -6.63,271.97 -30.47,375.94 -29.95,130.64 -67.1,177.92 -167.71,238.69 -54.07,32.67 -506.17,227.65 -562.61,250.19 -288.17,115.07 -596.88,225.71 -897.68,321.52 -542.61,172.84 -1106.84,293.03 -1676.93,372l-729.87 82.94c-124,13.31 -267.09,8.59 -382.05,24.35 -100.23,13.73 -627.09,10.78 -742.76,10.78 -129.08,0 -233.35,-9.07 -355.71,-8.36 -65.82,0.38 -106.59,-7.53 -178.01,-8.25 -85.66,-0.86 -248.27,-22.66 -346.8,-25.74 -130.1,-4.07 -372.35,-37.5 -503.2,-55.6 -448.97,-62.08 -846.72,-134.17 -1254.13,-236.01l-862.08 -255.52c-96.73,-32.25 -186.94,-62.8 -277.27,-95.26 -176.85,-63.55 -364.86,-136.77 -526.67,-218.39 -85.52,-43.14 -170.61,-72.85 -256.86,-115.68 -87.59,-43.5 -144.17,-99.93 -248.34,-124.2 0,-203.99 -42.94,-443.58 -42.42,-634.9 0.15,-56.53 -8.6,-73.35 -8.67,-126.81 -0.32,-245.23 -17.08,-375.64 15.65,-636.87 15.18,-121.18 34.59,-225.27 66.2,-331.73 45.45,-153.09 99.8,-286.69 188.11,-413.02 26.41,-37.78 56.1,-83.25 87.88,-115.32 77,-77.69 124.14,-120.21 219.72,-178.22 88.77,-53.87 186.53,-80.27 286.33,-120.06 137.02,-54.64 446.75,-142.22 608.53,-195.81 199.22,-65.99 381.24,-152.63 570.79,-233.55 91.66,-39.13 181,-90.38 268.59,-129.33 315.64,-140.35 598.07,-333.86 894.69,-510.79 179.42,-107.03 273.6,-157.2 273.6,-412.19 0,-165.71 -149.21,-355.6 -321.73,-355.6 -280.18,0 -305.8,85.83 -522.2,214.4 -245.75,146 -476.77,267.19 -736.45,398.08 -196.95,99.28 -422.44,188.48 -626.99,270.48 -219.68,88.07 -449.22,150.44 -678.78,227.16 -595.7,199.07 -956.03,510.56 -1168.18,1083.95 -41.04,110.93 -79.19,224.9 -106.43,350.77 -13.81,63.77 -28,116.14 -38.76,181.37 -33.73,204.34 -59.21,409.62 -59.21,626.59z"/>
   <path class="fil5" d="M4937.72 20851.85c0,-778.79 148.49,-1543.56 503.02,-1994.65l107.84 -120.76c62.14,-78.01 231.04,-212.6 320.47,-272.2 189.87,-126.51 395.21,-220.52 618.01,-279.46 546.97,-144.7 1181.67,-84.47 1668.03,160.9 226.9,114.47 355.76,207.67 527.02,378.92 25.39,25.39 53.85,50.32 75.36,77.03 23.82,29.6 44.38,56.57 66.46,85.94 268.79,357.65 411.05,893.47 448.26,1372.08 1.92,24.78 -1.02,49.47 1.71,74.48 74.81,683.41 -21.24,1644.93 -267.33,2258.23 -101.54,253.06 -186.09,398.04 -342.29,605.98 -392.2,522.1 -930.17,709.98 -1584.49,709.98 -445.35,0 -994.28,-178.75 -1255.15,-438.19 -20.24,-20.14 -25.6,-21.21 -46.22,-38.44 -89.56,-74.85 -225.55,-264.63 -290.37,-361.57 -56.33,-84.23 -134.08,-224.62 -172.91,-318.16 -111.51,-268.61 -174.99,-418.09 -245.32,-728.34 -79.33,-349.93 -132.1,-748.06 -132.1,-1171.77zm-770.47 -101.6c0,768.04 100.66,1579.55 392.35,2232.32 98.84,221.18 168.68,352.19 298.51,548.16l179.03 235.84c52.92,59.4 151.51,176.84 205.38,217.95 51.87,39.58 127.34,116.24 229.79,193.54 505.37,381.32 1093.41,509.19 1734.48,509.19 339.84,0 751.88,-81.76 1039.06,-205.54 234.25,-100.96 447.88,-226.44 639.23,-393.7l409.36 -428.84c32.43,-43.38 58.13,-79.76 89.57,-122.09 221.15,-297.75 414.6,-807.34 503.38,-1164.57 54.87,-220.81 103.41,-455.32 131.05,-698.68 66.99,-589.98 91.2,-1166.14 5.21,-1759.24 -45.23,-311.97 -153.04,-735.25 -293.89,-1018.45 -11.08,-22.29 -16.43,-40.21 -27.98,-65.15l-175.12 -299.01c-130.33,-195.47 -181.66,-262.09 -336.55,-416.99 -17.53,-17.52 -28.91,-29.42 -46.4,-46.73 -76.64,-75.82 -285.4,-229.55 -370.97,-280.97 -138.31,-83.1 -348.27,-196.35 -502.32,-251.21 -573.83,-204.37 -745.68,-197.9 -1343.03,-197.9 -209.2,0 -463.64,56.22 -663.89,106.58 -196.78,49.49 -392.97,129.71 -558.14,212.33 -173.58,86.83 -317.45,179.08 -470.21,300.25 -151.63,120.27 -261.17,236.87 -384.06,386.41 -57.43,69.87 -109.8,144.26 -160.59,220.41 -398.1,596.81 -523.25,1435.84 -523.25,2186.09z"/>
  </g>
  <path class="fil2" d="M-11112.44 25414.53c-354.53,451.09 -503.02,1215.86 -503.03,1994.65 0.01,423.72 52.78,821.84 132.11,1171.77 70.33,310.25 133.81,459.73 245.32,728.34 38.83,93.54 116.58,233.93 172.91,318.16 64.82,96.94 200.81,286.72 290.37,361.57 20.62,17.23 25.98,18.3 46.22,38.44 260.87,259.44 809.8,438.19 1255.16,438.19 654.31,0 1192.28,-187.88 1584.48,-709.98 156.2,-207.94 240.75,-352.92 342.29,-605.98 246.09,-613.3 342.14,-1574.82 267.33,-2258.23 -2.73,-25.01 0.21,-49.7 -1.71,-74.48 -37.21,-478.6 -179.47,-1014.43 -448.26,-1372.08 -22.09,-29.37 -42.64,-56.34 -66.46,-85.94 -21.51,-26.71 -49.97,-51.64 -75.36,-77.03 -171.26,-171.25 -300.12,-264.45 -527.02,-378.92 -486.36,-245.37 -1121.06,-305.6 -1668.03,-160.9 -222.8,58.94 -428.14,152.95 -618.01,279.46 -89.43,59.6 -258.33,194.19 -320.47,272.2l-107.84 120.76z"/>
  <path class="fil5" d="M5440.74 18857.2c-354.53,451.09 -503.02,1215.86 -503.03,1994.65 0.01,423.72 52.78,821.84 132.11,1171.77 70.33,310.25 133.81,459.73 245.32,728.34 38.83,93.54 116.58,233.93 172.91,318.16 64.82,96.94 200.81,286.72 290.37,361.57 20.62,17.23 25.98,18.3 46.22,38.44 260.87,259.44 809.8,438.19 1255.16,438.19 654.31,0 1192.28,-187.88 1584.48,-709.98 156.2,-207.94 240.75,-352.92 342.29,-605.98 246.09,-613.3 342.14,-1574.82 267.33,-2258.23 -2.73,-25.01 0.21,-49.7 -1.71,-74.48 -37.21,-478.6 -179.47,-1014.43 -448.26,-1372.08 -22.09,-29.37 -42.64,-56.34 -66.46,-85.94 -21.51,-26.71 -49.97,-51.64 -75.36,-77.03 -171.26,-171.25 -300.12,-264.45 -527.02,-378.92 -486.36,-245.37 -1121.06,-305.6 -1668.03,-160.9 -222.8,58.94 -428.14,152.95 -618.01,279.46 -89.43,59.6 -258.33,194.19 -320.47,272.2l-107.84 120.76z"/>
  <line class="fil1 str2" x1="-11197" y1="30640.09" x2="-11293.73" y2= "31210.72" />
  <line class="fil1 str2" x1="-7668.1" y1="30645.34" x2="-7526.06" y2= "31210.72" />
  <path class="fil5" d="M9027.12 24653.39l-142.04 -565.38c-191.35,167.26 -404.97,292.74 -639.23,393.71 -287.18,123.77 -699.22,205.53 -1039.06,205.53 -641.07,0 -1229.11,-127.87 -1734.48,-509.19 -43.48,-32.81 -82.11,-65.5 -116.13,-95.3l-96.73 570.63c172.52,0 321.73,189.89 321.73,355.6 0,254.99 -94.18,305.16 -273.6,412.2 -296.62,176.92 -579.05,370.43 -894.69,510.78 -87.59,38.95 -176.93,90.2 -268.6,129.33 -189.54,80.91 -371.56,167.56 -570.78,233.54 -161.78,53.6 -471.51,141.18 -608.53,195.82 -99.8,39.79 -197.56,66.19 -286.33,120.06 -95.58,58.01 -142.72,100.53 -219.72,178.22 -31.78,32.07 -61.47,77.54 -87.89,115.32 -88.3,126.33 -142.65,259.93 -188.1,413.02 -31.61,106.46 -51.03,210.55 -66.2,331.73 -32.73,261.23 -15.97,391.64 -15.65,636.87 0.07,53.46 8.82,70.28 8.67,126.81 -0.52,191.32 42.42,430.91 42.42,634.9 104.17,24.27 160.75,80.7 248.34,124.2 86.24,42.83 171.34,72.55 256.86,115.68 161.81,81.62 349.82,154.84 526.67,218.39 90.33,32.46 180.54,63.01 277.27,95.26l862.08 255.52c407.41,101.84 805.16,173.93 1254.13,236.01 130.85,18.1 373.1,51.53 503.2,55.6 98.53,3.08 261.14,24.88 346.8,25.74 71.41,0.72 112.19,8.63 178.01,8.25 122.37,-0.71 226.63,8.36 355.71,8.36 115.67,0 642.53,2.95 742.76,-10.78 114.96,-15.76 258.05,-11.04 382.06,-24.35l729.86 -82.94c570.09,-78.97 1134.32,-199.16 1676.94,-372 300.79,-95.81 609.5,-206.45 897.67,-321.52 56.44,-22.53 508.54,-217.52 562.61,-250.19 100.6,-60.77 137.76,-108.05 167.71,-238.69 23.84,-103.97 30.47,-252.21 30.47,-375.94 0,-480.24 4.42,-991.58 -168.02,-1423.71 -69.26,-173.55 -138.76,-249.67 -257.45,-360.63 -108.9,-101.82 -254.93,-161.7 -398.89,-210.71 -209.27,-71.23 -417.27,-127.53 -615.06,-206.2 -147.4,-58.62 -298.68,-103.94 -445.87,-172.2 -186.52,-86.49 -375.41,-168.17 -555.9,-265.37l-268.53 -146.33c-44.28,-25.56 -84.7,-45.26 -130.32,-72.89 -214.65,-129.98 -648.24,-317.26 -648.22,-579.43 -0.01,-217.03 117.63,-423.33 364.05,-423.33z"/>
  <path class="fil6" d="M6719.25 52265.43l16898.7 0c1131.9,0 2051.7,917.7 2051.7,2051.7l0 16898.7c0,1131.9 -917.7,2051.7 -2051.7,2051.7l-16898.7 0c-1134,-2.1 -2051.7,-919.8 -2051.7,-2053.8l0 -16896.6c0,-1134 917.7,-2051.7 2051.7,-2051.7zm10949.4 16692.9l0 2051.7c331.8,172.2 739.2,300.3 1188.6,386.4 449.4,86.1 942.9,128.1 1436.4,128.1 493.5,0 942.9,-44.1 1394.4,-138.6 451.5,-94.5 821.1,-249.9 1148.7,-451.5 331.8,-218.4 615.3,-491.4 779.1,-861 163.8,-369.6 291.9,-779.1 291.9,-1312.5 0,-373.8 -56.7,-697.2 -168,-984.9 -111.3,-287.7 -270.9,-533.4 -491.4,-739.2 -210,-218.4 -451.5,-409.5 -739.2,-573.3 -287.7,-163.8 -615.3,-336 -984.9,-491.4 -270.9,-111.3 -491.4,-218.4 -739.2,-323.4 -214.2,-107.1 -396.9,-214.2 -533.4,-319.2 -151.2,-111.3 -266.7,-224.7 -348.6,-344.4 -81.9,-123.9 -123.9,-258.3 -123.9,-409.5 0,-138.6 35.7,-266.7 111.3,-382.2 73.5,-115.5 176.4,-210 306.6,-291.9 132.3,-81.9 296.1,-142.8 491.4,-189 193.2,-44.1 405.3,-65.1 657.3,-65.1 172.2,0 352.8,12.6 533.4,37.8 189,25.2 382.2,65.1 573.3,119.7 193.2,52.5 382.2,119.7 573.3,201.6 180.6,81.9 348.6,176.4 491.4,283.5l0 -1927.8c-310.8,-119.7 -657.3,-210 -1024.8,-266.7 -369.6,-56.7 -779.1,-86.1 -1270.5,-86.1 -491.4,0 -942.9,52.5 -1394.4,155.4 -451.5,102.9 -821.1,266.7 -1148.7,491.4 -331.8,220.5 -573.3,491.4 -779.1,861 -193.2,344.4 -287.7,739.2 -287.7,1230.6 0,615.3 176.4,1148.7 533.4,1558.2 352.8,451.5 903,779.1 1600.2,1106.7 283.5,115.5 533.4,228.9 779.1,340.2 245.7,111.3 451.5,224.7 615.3,344.4 176.4,119.7 315,249.9 409.5,390.6 102.9,138.6 155.4,304.5 155.4,491.4 0,132.3 -31.5,254.1 -94.5,369.6 -63,115.5 -159.6,214.2 -291.9,296.1 -132.3,81.9 -291.9,147 -491.4,197.4 -193.2,44.1 -409.5,69.3 -697.2,69.3 -451.5,0 -903,-77.7 -1312.5,-233.1 -451.5,-155.4 -861,-390.6 -1230.6,-697.2l81.9 -23.1zm-3444 -5044.2l2625 0 0 -1682.1 -7341.6 0 0 1682.1 2625 0 0 7505.4 2091.6 0 0 -7505.4z"/>
  <g style="clip-path:url(#id5)">
   <image x="-79601.63" y="45550.92" width="36124.44" height="36124.44" xlink:href="typebranco_Images\typebranco_ImgID4.png"/>
  </g>
 </g>
</svg>
